<?xml version="1.0" encoding="UTF-8" standalone="no"?>
<svg width="1300px" height="621px" viewBox="0 0 1300 621" version="1.1" xmlns="http://www.w3.org/2000/svg" xmlns:xlink="http://www.w3.org/1999/xlink" xmlns:sketch="http://www.bohemiancoding.com/sketch/ns">
    <!-- Generator: Sketch 3.4.1 (15681) - http://www.bohemiancoding.com/sketch -->
    <title>home</title>
    <desc>Created with Sketch.</desc>
    <defs>
        <radialGradient cx="50.8744538%" cy="50%" fx="50.8744538%" fy="50%" r="50%" id="radialGradient-1">
            <stop stop-color="#FFFFFF" offset="0%"></stop>
            <stop stop-color="#FFFFFF" stop-opacity="0" offset="100%"></stop>
        </radialGradient>
        <radialGradient cx="50.54245%" cy="34.7985787%" fx="50.54245%" fy="34.7985787%" r="100%" id="radialGradient-2">
            <stop stop-color="#E7D2A4" offset="0%"></stop>
            <stop stop-color="#CAA66B" offset="100%"></stop>
        </radialGradient>
    </defs>
    <g id="Page-1" stroke="none" stroke-width="1" fill="none" fill-rule="evenodd" sketch:type="MSPage">
        <circle id="Halo" fill-opacity="0.300000012" fill="url(#radialGradient-1)" sketch:type="MSShapeGroup" cx="657" cy="615" r="614"></circle>
        <g id="Table" sketch:type="MSLayerGroup" transform="translate(0.000000, 411.182244)">
            <path d="M1161.08055,0.278959379 L1300,196.411379 L0,196.411379 L138.919449,0.278959379 L1161.08055,0.278959379 Z" id="Dessus" fill="url(#radialGradient-2)" sketch:type="MSShapeGroup"></path>
            <rect id="coin" fill="#907B57" sketch:type="MSShapeGroup" x="0" y="196.411379" width="1300" height="12.7539856"></rect>
        </g>
        <ellipse id="auréole" fill-opacity="0.100000001" fill="#FFFFFF" sketch:type="MSShapeGroup" cx="1036.57227" cy="154.189433" rx="56.4941406" ry="56.7552361"></ellipse>
        <ellipse id="auréole" fill-opacity="0.100000001" fill="#FFFFFF" sketch:type="MSShapeGroup" cx="264.0625" cy="264.511409" rx="67.2851562" ry="67.5961239"></ellipse>
        <ellipse id="auréole" fill-opacity="0.100000001" fill="#FFFFFF" sketch:type="MSShapeGroup" cx="86.328125" cy="330.832134" rx="67.2851562" ry="67.5961239"></ellipse>
        <path d="M93.5690789,225.493507 C123.510429,225.493507 147.782689,201.10907 147.782689,171.029341 C147.782689,140.949613 123.510429,116.565176 93.5690789,116.565176 C63.6277288,116.565176 39.3554688,140.949613 39.3554688,171.029341 C39.3554688,201.10907 63.6277288,225.493507 93.5690789,225.493507 Z" id="auréole" fill-opacity="0.100000001" fill="#FFFFFF" sketch:type="MSShapeGroup"></path>
        <ellipse id="auréole" fill-opacity="0.100000001" fill="#FFFFFF" sketch:type="MSShapeGroup" cx="1140.67383" cy="57.2591424" rx="56.4941406" ry="56.7552361"></ellipse>
        <ellipse id="auréole" fill-opacity="0.100000001" fill="#FFFFFF" sketch:type="MSShapeGroup" cx="465.917969" cy="211.582369" rx="111.083984" ry="111.597374"></ellipse>
        <ellipse id="auréole" fill-opacity="0.100000001" fill="#FFFFFF" sketch:type="MSShapeGroup" cx="1049.26758" cy="400.341356" rx="147.433651" ry="148.115036"></ellipse>
        <path d="M1220.6543,227.524851 C1251.85515,227.524851 1277.14844,202.114666 1277.14844,170.769615 C1277.14844,139.424563 1251.85515,114.014378 1220.6543,114.014378 C1189.45344,114.014378 1164.16016,139.424563 1164.16016,170.769615 C1164.16016,202.114666 1189.45344,227.524851 1220.6543,227.524851 Z" id="auréole" fill-opacity="0.100000001" fill="#FFFFFF" sketch:type="MSShapeGroup"></path>
        <ellipse id="auréole" fill-opacity="0.100000001" fill="#FFFFFF" sketch:type="MSShapeGroup" cx="1242.87109" cy="300.222569" rx="45.703125" ry="45.9143483"></ellipse>
        <ellipse id="auréole" fill-opacity="0.100000001" fill="#FFFFFF" sketch:type="MSShapeGroup" cx="655.712891" cy="439.111284" rx="150.210938" ry="150.905158"></ellipse>
        <ellipse id="auréole" fill-opacity="0.100000001" fill="#FFFFFF" sketch:type="MSShapeGroup" cx="228.515625" cy="97.4341972" rx="67.2851562" ry="67.5961239"></ellipse>
        <ellipse id="auréole" fill-opacity="0.100000001" fill="#FFFFFF" sketch:type="MSShapeGroup" cx="868.359375" cy="213.495467" rx="67.2851562" ry="67.5961239"></ellipse>
        <g id="Plante" sketch:type="MSLayerGroup" transform="translate(817.386719, 389.500468)">
            <ellipse id="ombre" fill-opacity="0.200000018" fill="#000000" sketch:type="MSShapeGroup" cx="41.8945313" cy="80.9878088" rx="26.6601563" ry="5.73929354"></ellipse>
            <path d="M71.09375,61.2191311 C71.09375,62.9791811 70.7636719,64.6882152 70.1289063,66.3207254 C66.7519531,75.1209755 54.8183594,81.6255081 40.625,81.6255081 C26.4316406,81.6255081 14.4980469,75.1209755 11.1210937,66.3207254 C10.4863281,64.6882152 10.15625,62.9791811 10.15625,61.2191311 L71.09375,61.2191311 Z" id="Fill-6101" fill="#F0F0F0" sketch:type="MSShapeGroup"></path>
            <path d="M10.15625,61.2191311 C10.15625,62.9791811 10.4863281,64.6882152 11.1210937,66.3207254 C14.4980469,75.1209755 26.4316406,81.6255081 40.625,81.6255081 L40.625,61.2191311 L10.15625,61.2191311 Z" id="Fill-6102" fill="#FFFFFF" sketch:type="MSShapeGroup"></path>
            <path d="M54.7352051,7.04491905 C48.9626465,2.79274024 43.8680176,-0.00038261957 36.8843262,-0.00038261957 C26.8943848,-0.00038261957 18.3288574,6.12025509 14.695459,14.8312273 C12.2516113,14.5111022 9.17680664,16.69586 9.17680664,20.0731154 C4.16469727,19.8562976 0.000634765625,22.3025121 0.000634765625,25.3405115 C0.000634765625,30.3910898 10.4260254,32.5337594 15.3314941,28.4983983 C18.0216309,29.8044064 21.6093262,30.6091829 25.5651855,30.6091829 C32.732959,30.6091829 38.7200684,27.9856881 40.2523926,24.471965 C42.4182129,28.0469072 48.2225098,30.6091829 55.0640137,30.6091829 C58.7189941,30.6091829 62.8563965,29.8082326 66.0429199,27.9882389 C73.4836426,34.4800176 83.7693848,28.0698644 78.9756348,20.1560163 C84.0461426,13.4219119 70.2184082,1.12834511 54.7352051,7.04491905 Z" id="Fill-6103" fill="#18AC72" sketch:type="MSShapeGroup"></path>
            <path d="M60.9377539,45.9138382 C60.9377539,48.3779082 64.4543555,50.3445728 68.3061133,49.5576519 C73.1036719,52.7053355 81.2502539,50.4236475 81.2502539,45.9138382 C81.2502539,41.4065796 73.1024023,39.1248916 68.3061133,42.2712999 C64.415,41.4754512 60.9377539,43.4791023 60.9377539,45.9138382 Z" id="Fill-6104" fill="#17AC72" sketch:type="MSShapeGroup"></path>
            <path d="M60.9901855,46.4137944 L50.7806152,48.4646353 C55.0868652,45.5809591 59.0884277,42.697283 61.2390137,39.8136068 C61.8725098,38.9616406 61.9156738,37.8048541 61.3443848,36.9082489 L58.8218262,32.9481364 C58.5526855,32.2721751 58.5831543,31.5120376 58.9081543,30.8603089 L59.2141113,30.2455668 C57.8874512,30.4623846 56.5100098,30.6090554 55.0640137,30.6090554 C52.902002,30.6090554 50.8440918,30.3527003 48.9702637,29.8884552 C49.5897949,31.3220032 51.3569824,33.663635 50.7806152,34.4352511 C50.1064941,35.3395087 40.776709,33.8511185 36.4526855,28.1590147 C35.2428223,28.8234974 33.8171387,29.3770204 32.2302246,29.7889741 C34.620752,35.9670048 43.3779785,37.4770767 45.7024902,38.2614468 C48.2644043,39.126167 43.0682129,42.2955324 36.6596191,46.8678363 C35.8877441,47.4188085 34.8721191,47.494057 34.0291504,47.0591461 C33.0211426,46.5413343 32.1870605,46.022247 31.4938965,45.5031598 C30.5811035,46.3232411 29.3509277,47.0553199 27.901123,47.6318 C28.7999512,48.6533943 30.0187012,49.8025284 31.2983887,50.8866172 C27.4199707,53.9896619 23.7345215,57.4944571 21.5813965,61.2186209 L46.9720215,61.2186209 C46.9720215,53.0369391 58.3952637,49.7782958 62.9236816,48.8064421 C61.8902832,48.2082802 61.1768066,47.3639663 60.9901855,46.4137944" id="Fill-6105" fill="#733724" sketch:type="MSShapeGroup"></path>
            <path d="M33.1912598,41.839705 C32.7253418,39.2378919 28.5739746,37.778836 23.7027832,38.3986797 C18.1130371,35.5430623 8.90766602,37.2737781 7.74223633,41.3027622 C4.65600586,42.0399426 2.53969727,43.5410867 2.53969727,45.2769041 C2.53969727,47.7422495 6.80151367,49.7407991 12.0611816,49.7407991 C14.5215332,49.7407991 16.7571777,49.2995112 18.4469238,48.5801864 C20.1925293,48.9589798 22.3101074,48.9921401 24.5381348,48.5891142 C29.8143066,47.6351161 33.688916,44.6124215 33.1912598,41.839705" id="Fill-6106" fill="#18AC72" sketch:type="MSShapeGroup"></path>
            <path d="M71.09375,61.2191311 C71.09375,62.9791811 70.7636719,64.6882152 70.1289063,66.3207254 L11.1210937,66.3207254 C10.4863281,64.6882152 10.15625,62.9791811 10.15625,61.2191311 L71.09375,61.2191311 Z" id="Fill-6107" fill="#E0E0E0" sketch:type="MSShapeGroup"></path>
            <path d="M54.735459,7.04453643 C48.9629004,2.79363302 43.8682715,0.000510159426 36.8845801,0.000510159426 C26.8946387,0.000510159426 18.3291113,6.11987247 14.6957129,14.8308447 C12.2518652,14.5107196 9.17706055,16.6954774 9.17706055,20.0727328 C9.17706055,20.0803852 9.17959961,20.0867622 9.17959961,20.0931391 C4.16495117,19.855915 -0.000380859375,22.3021295 -0.000380859375,25.3414042 C-0.000380859375,30.3919826 10.4262793,32.5333767 15.331748,28.4980157 C16.0020605,28.8245177 16.7282324,29.1178594 17.501377,29.3767653 L57.4243262,6.21935356 C56.5178809,6.43872211 55.6190527,6.70783121 54.735459,7.04453643" id="Fill-6108" fill="#4FB58D" sketch:type="MSShapeGroup"></path>
            <path d="M40.625,61.2191311 L10.15625,61.2191311 C10.15625,62.9791811 10.4863281,64.6882152 11.1210937,66.3207254 L40.625,66.3207254 L40.625,61.2191311 Z" id="Fill-6109" fill="#F0F0F0" sketch:type="MSShapeGroup"></path>
        </g>
        <g id="PC" sketch:type="MSLayerGroup" transform="translate(958.496094, 268.337605)">
            <rect id="ombre" fill-opacity="0.2" fill="#000000" sketch:type="MSShapeGroup" x="2.5390625" y="155.598625" width="181.542969" height="16.5801813" rx="8"></rect>
            <path d="M189.160156,129.151557 C189.160156,133.894966 185.311929,137.743448 180.562236,137.743448 L8.59792023,137.743448 C3.84822693,137.743448 0,133.894966 0,129.151557 L0,8.85918693 C0,4.11577829 3.84822693,0.267296689 8.59792023,0.267296689 L180.562236,0.267296689 C185.311929,0.267296689 189.160156,4.11577829 189.160156,8.85918693 L189.160156,129.151557 Z" id="Fill-2114" fill="#212121" sketch:type="MSShapeGroup"></path>
            <path d="M120.376794,159.76072 L68.7863174,159.76072 L68.7863174,137.744925 L120.376794,137.744925 L120.376794,159.76072 Z" id="Fill-2115" fill="#E2E4E5" sketch:type="MSShapeGroup"></path>
            <path d="M137.570862,164.057847 C137.570862,166.429551 135.643792,168.352315 133.270424,168.352315 L55.8891415,168.352315 C53.5157727,168.352315 51.5887036,166.429551 51.5887036,164.057847 C51.5887036,161.683189 53.5157727,159.760425 55.8891415,159.760425 L133.270424,159.760425 C135.643792,159.760425 137.570862,161.683189 137.570862,164.057847" id="Fill-2116" fill="#F0F0F0" sketch:type="MSShapeGroup"></path>
            <path d="M189.160156,129.151557 L189.160156,103.372933 L0,103.372933 L0,129.151557 C0,133.894966 3.85118256,137.743448 8.59792023,137.743448 L180.562236,137.743448 C185.308974,137.743448 189.160156,133.894966 189.160156,129.151557" id="Fill-2117" fill="#FFFFFF" sketch:type="MSShapeGroup"></path>
            <path d="M94.5800781,114.920445 C91.4678024,114.920445 88.9377853,117.448688 88.9377853,120.558781 C88.9377853,123.665921 91.4678024,126.197117 94.5800781,126.197117 C97.6923538,126.197117 100.222371,123.665921 100.222371,120.558781 C100.222371,117.448688 97.6923538,114.920445 94.5800781,114.920445 M94.5800781,132.104226 C88.210701,132.104226 83.0265305,126.923691 83.0265305,120.558781 C83.0265305,114.190918 88.210701,109.013336 94.5800781,109.013336 C100.949455,109.013336 106.133626,114.190918 106.133626,120.558781 C106.133626,126.923691 100.949455,132.104226 94.5800781,132.104226" id="Fill-2118" fill="#CFD3D4" sketch:type="MSShapeGroup"></path>
            <path d="M0,8.86066371 L0,103.37441 L58.2967957,103.37441 L161.474794,0.268773466 L8.59792023,0.268773466 C3.85118256,0.268773466 0,4.11725507 0,8.86066371" id="Fill-2119" fill="#5B5C5F" sketch:type="MSShapeGroup"></path>
        </g>
        <g id="Portable" sketch:type="MSLayerGroup" transform="translate(525.585938, 337.209127)">
            <path d="M261.523438,216.999956 L0,216.999956 C0,226.055741 7.31856995,233.397937 16.3452148,233.397937 L245.178223,233.397937 C254.204868,233.397937 261.523438,226.055741 261.523438,216.999956" id="ombre" fill-opacity="0.2" fill="#000000" sketch:type="MSShapeGroup"></path>
            <path d="M261.523438,213.17376 L0,213.17376 L32.6904297,131.183852 L228.833008,131.183852 L261.523438,213.17376 Z" id="Fill-6025" fill="#F0F0F0" sketch:type="MSShapeGroup"></path>
            <path d="M228.833008,131.183852 L32.6904297,131.183852 L32.6904297,8.19899077 C32.6904297,3.67314787 36.3517578,0 40.8630371,0 L220.6604,0 C225.17168,0 228.833008,3.67314787 228.833008,8.19899077 L228.833008,131.183852 Z" id="Fill-6026" fill="#FFFFFF" sketch:type="MSShapeGroup"></path>
            <path d="M261.523438,213.17376 L0,213.17376 C0,222.229545 7.31856995,229.571742 16.3452148,229.571742 L245.178223,229.571742 C254.204868,229.571742 261.523438,222.229545 261.523438,213.17376" id="Fill-6027" fill="#FFFFFF" sketch:type="MSShapeGroup"></path>
            <path d="M102.157593,184.477292 L98.0712891,200.875274 L163.452148,200.875274 L159.365845,184.477292 L102.157593,184.477292 Z" id="Fill-6028" fill="#CFD3D4" sketch:type="MSShapeGroup"></path>
            <path d="M212.487793,16.3979815 L49.0356445,16.3979815 L49.0356445,114.785871 L212.487793,114.785871 L212.487793,16.3979815 Z" id="Fill-6029" fill="#3596DA" sketch:type="MSShapeGroup"></path>
            <rect id="Rectangle-3" fill-opacity="0.200000018" fill="#000000" sketch:type="MSShapeGroup" x="49.5117188" y="105.858081" width="162.5" height="8.92778995"></rect>
            <path d="M202.886614,168.079311 L58.6400928,168.079311 L55.3710498,176.278302 L206.155657,176.278302 L202.886614,168.079311 Z" id="Fill-6031" fill="#CFD3D4" sketch:type="MSShapeGroup"></path>
            <path d="M199.614302,159.88032 L196.345259,151.681329 L65.178996,151.681329 L61.9058667,159.88032 L199.614302,159.88032 Z" id="Fill-6032" fill="#CFD3D4" sketch:type="MSShapeGroup"></path>
            <g id="Fill-2381-+-Fill-2382" transform="translate(54.589844, 22.957174)" sketch:type="MSShapeGroup">
                <path d="M13.092041,0.910998975 L7.16309204,0.910998975 C7.04722748,0.910998975 6.93638153,0.863171528 6.85455627,0.777765375 L6.23726654,0.13346135 C6.15544128,0.0480551959 6.04437714,0 5.92873077,0 L0.872802734,0 C0.390797424,0 0,0.407899791 0,0.910998975 L0,12.7539856 L12.2192383,12.7539856 C13.1830307,12.7539856 13.9648438,11.9381861 13.9648438,10.9319877 L13.9648438,1.82199795 L13.092041,1.82199795 L13.092041,0.910998975 Z" id="Fill-2381" fill="#FDD835"></path>
                <path d="M13.9648438,1.82199795 L6.37909698,1.82199795 C6.21391907,1.82199795 6.06270599,1.91970259 5.98895416,2.07388917 L5.35726318,3.39233243 C5.28329315,3.54674676 5.13229828,3.6439959 4.96690216,3.6439959 L0.872802734,3.6439959 C0.390797424,3.6439959 0,4.05189569 0,4.55499487 L0,12.7539856 L12.2192383,12.7539856 C13.1830307,12.7539856 13.9648438,11.9381861 13.9648438,10.9319877 L13.9648438,1.82199795 Z" id="Fill-2382" fill="#FFF69D"></path>
            </g>
            <g id="Fill-2381-+-Fill-2382" transform="translate(54.589844, 45.914348)" sketch:type="MSShapeGroup">
                <path d="M13.092041,0.910998975 L7.16309204,0.910998975 C7.04722748,0.910998975 6.93638153,0.863171528 6.85455627,0.777765375 L6.23726654,0.13346135 C6.15544128,0.0480551959 6.04437714,0 5.92873077,0 L0.872802734,0 C0.390797424,0 0,0.407899791 0,0.910998975 L0,12.7539856 L12.2192383,12.7539856 C13.1830307,12.7539856 13.9648438,11.9381861 13.9648438,10.9319877 L13.9648438,1.82199795 L13.092041,1.82199795 L13.092041,0.910998975 Z" id="Fill-2381" fill="#FDD835"></path>
                <path d="M13.9648438,1.82199795 L6.37909698,1.82199795 C6.21391907,1.82199795 6.06270599,1.91970259 5.98895416,2.07388917 L5.35726318,3.39233243 C5.28329315,3.54674676 5.13229828,3.6439959 4.96690216,3.6439959 L0.872802734,3.6439959 C0.390797424,3.6439959 0,4.05189569 0,4.55499487 L0,12.7539856 L12.2192383,12.7539856 C13.1830307,12.7539856 13.9648438,11.9381861 13.9648438,10.9319877 L13.9648438,1.82199795 Z" id="Fill-2382" fill="#FFF69D"></path>
            </g>
            <g id="Fenetre" transform="translate(104.101563, 30.609566)" sketch:type="MSShapeGroup">
                <path d="M64.4287109,0 C69.5139771,0 73.6328125,4.12689543 73.6328125,9.2221127 L73.6328125,50.7216198 C73.6328125,55.8168371 69.5139771,59.9437325 64.4287109,59.9437325 L9.20410156,59.9437325 C4.11883545,59.9437325 0,55.8168371 0,50.7216198 L0,9.2221127 C0,4.12689543 4.11883545,0 9.20410156,0 L64.4287109,0 Z" id="Fill-5390" fill="#FFFFFF"></path>
                <path d="M41.418457,23.0552817 L66.7297363,23.0552817 L66.7297363,50.7216198 L41.418457,50.7216198 L41.418457,23.0552817 Z" id="Fill-5391" fill="#64B5F7"></path>
                <path d="M6.90307617,23.0552817 L32.2143555,23.0552817 L32.2143555,50.7216198 L6.90307617,50.7216198 L6.90307617,23.0552817 Z" id="Fill-5392" fill="#64B5F7"></path>
                <path d="M32.2143555,50.7216198 L32.2143555,43.4903307 L24.6842499,33.4301585 L11.7398315,50.7216198 L32.2143555,50.7216198 Z" id="Fill-5393" fill="#417505"></path>
                <path d="M64.4287109,0 L9.20410156,0 C4.12113647,0 0,4.12920096 0,9.2221127 L0,13.833169 L73.6328125,13.833169 L73.6328125,9.2221127 C73.6328125,4.12920096 69.511676,0 64.4287109,0" id="Fill-5394" fill="#2774AA"></path>
                <path d="M24.6837897,42.8616132 L28.2135626,38.1456553 L24.6837897,33.4296974 L21.1540167,38.1456553 L24.6837897,42.8616132 Z" id="Fill-5395" fill="#FFFFFF"></path>
                <path d="M66.7297363,50.7216198 L66.7297363,43.4903307 L59.1996307,33.4301585 L46.2552124,50.7216198 L66.7297363,50.7216198 Z" id="Fill-5396" fill="#7ED321"></path>
                <path d="M59.1991705,42.8616132 L62.7289435,38.1456553 L59.1991705,33.4296974 L55.6693976,38.1456553 L59.1991705,42.8616132 Z" id="Fill-5397" fill="#FFFFFF"></path>
                <path d="M12.6556396,6.91658452 C12.6556396,8.18923608 11.6247803,9.2221127 10.3546143,9.2221127 C9.08444824,9.2221127 8.05358887,8.18923608 8.05358887,6.91658452 C8.05358887,5.64393297 9.08444824,4.61105635 10.3546143,4.61105635 C11.6247803,4.61105635 12.6556396,5.64393297 12.6556396,6.91658452" id="Fill-5398" fill="#EF5350"></path>
                <path d="M21.8597412,6.91658452 C21.8597412,8.18923608 20.8288818,9.2221127 19.5587158,9.2221127 C18.2885498,9.2221127 17.2576904,8.18923608 17.2576904,6.91658452 C17.2576904,5.64393297 18.2885498,4.61105635 19.5587158,4.61105635 C20.8288818,4.61105635 21.8597412,5.64393297 21.8597412,6.91658452" id="Fill-5399" fill="#FBC02D"></path>
                <path d="M31.0638428,6.91658452 C31.0638428,8.18923608 30.0329834,9.2221127 28.7628174,9.2221127 C27.4926514,9.2221127 26.461792,8.18923608 26.461792,6.91658452 C26.461792,5.64393297 27.4926514,4.61105635 28.7628174,4.61105635 C30.0329834,4.61105635 31.0638428,5.64393297 31.0638428,6.91658452" id="Fill-5400" fill="#26A69A"></path>
            </g>
        </g>
        <g id="Group" sketch:type="MSLayerGroup" transform="translate(1037.166222, 154.766814) rotate(17.000000) translate(-1037.166222, -154.766814) translate(1001.647046, 119.022007)">
            <path d="M63.4270999,61.2768117 L60.8900159,63.8300122 L10.148336,63.8300122 L7.61125199,61.2768117 L7.61125199,10.212802 L10.148336,7.65960146 L60.8900159,7.65960146 L63.4270999,10.212802 L63.4270999,61.2768117 Z" id="Fill-6055" fill="#212121" sketch:type="MSShapeGroup"></path>
            <path d="M17.759588,7.65960146 L12.68542,7.65960146 L12.68542,2.55320049 C12.68542,1.14383382 13.8220336,0 15.222504,0 C16.6229743,0 17.759588,1.14383382 17.759588,2.55320049 L17.759588,7.65960146 Z" id="Fill-6056" fill="#FFFFFF" sketch:type="MSShapeGroup"></path>
            <path d="M27.907924,7.65960146 L22.833756,7.65960146 L22.833756,2.55320049 C22.833756,1.14383382 23.9703696,0 25.37084,0 C26.7713103,0 27.907924,1.14383382 27.907924,2.55320049 L27.907924,7.65960146 Z" id="Fill-6057" fill="#FFFFFF" sketch:type="MSShapeGroup"></path>
            <path d="M38.0562599,7.65960146 L32.9820919,7.65960146 L32.9820919,2.55320049 C32.9820919,1.14383382 34.1187056,0 35.5191759,0 C36.9196463,0 38.0562599,1.14383382 38.0562599,2.55320049 L38.0562599,7.65960146 Z" id="Fill-6058" fill="#FFFFFF" sketch:type="MSShapeGroup"></path>
            <path d="M48.2045959,7.65960146 L43.1304279,7.65960146 L43.1304279,2.55320049 C43.1304279,1.14383382 44.2670416,0 45.6675119,0 C47.0679823,0 48.2045959,1.14383382 48.2045959,2.55320049 L48.2045959,7.65960146 Z" id="Fill-6059" fill="#FFFFFF" sketch:type="MSShapeGroup"></path>
            <path d="M58.3529319,7.65960146 L53.2787639,7.65960146 L53.2787639,2.55320049 C53.2787639,1.14383382 54.4153775,0 55.8158479,0 C57.2163183,0 58.3529319,1.14383382 58.3529319,2.55320049 L58.3529319,7.65960146 Z" id="Fill-6060" fill="#FFFFFF" sketch:type="MSShapeGroup"></path>
            <path d="M17.759588,68.9364132 C17.759588,70.3457799 16.6229743,71.4896137 15.222504,71.4896137 C13.8220336,71.4896137 12.68542,70.3457799 12.68542,68.9364132 L12.68542,63.8300122 L17.759588,63.8300122 L17.759588,68.9364132 Z" id="Fill-6061" fill="#F0F0F0" sketch:type="MSShapeGroup"></path>
            <path d="M7.61125199,58.7236112 L2.537084,58.7236112 C1.13661363,58.7236112 0,57.5797774 0,56.1704107 C0,54.7610441 1.13661363,53.6172103 2.537084,53.6172103 L7.61125199,53.6172103 L7.61125199,58.7236112 Z" id="Fill-6062" fill="#FFFFFF" sketch:type="MSShapeGroup"></path>
            <path d="M7.61125199,48.5108093 L2.537084,48.5108093 C1.13661363,48.5108093 0,47.3669755 0,45.9576088 C0,44.5482421 1.13661363,43.4044083 2.537084,43.4044083 L7.61125199,43.4044083 L7.61125199,48.5108093 Z" id="Fill-6063" fill="#FFFFFF" sketch:type="MSShapeGroup"></path>
            <path d="M7.61125199,38.2980073 L2.537084,38.2980073 C1.13661363,38.2980073 0,37.1541735 0,35.7448068 C0,34.3354402 1.13661363,33.1916063 2.537084,33.1916063 L7.61125199,33.1916063 L7.61125199,38.2980073 Z" id="Fill-6064" fill="#FFFFFF" sketch:type="MSShapeGroup"></path>
            <path d="M7.61125199,28.0852054 L2.537084,28.0852054 C1.13661363,28.0852054 0,26.9413716 0,25.5320049 C0,24.1226382 1.13661363,22.9788044 2.537084,22.9788044 L7.61125199,22.9788044 L7.61125199,28.0852054 Z" id="Fill-6065" fill="#FFFFFF" sketch:type="MSShapeGroup"></path>
            <path d="M7.61125199,17.8724034 L2.537084,17.8724034 C1.13661363,17.8724034 0,16.7285696 0,15.3192029 C0,13.9098363 1.13661363,12.7660024 2.537084,12.7660024 L7.61125199,12.7660024 L7.61125199,17.8724034 Z" id="Fill-6066" fill="#FFFFFF" sketch:type="MSShapeGroup"></path>
            <path d="M71.0383519,56.1704107 C71.0383519,57.5797774 69.9017383,58.7236112 68.5012679,58.7236112 L63.4270999,58.7236112 L63.4270999,53.6172103 L68.5012679,53.6172103 C69.9017383,53.6172103 71.0383519,54.7610441 71.0383519,56.1704107" id="Fill-6067" fill="#F0F0F0" sketch:type="MSShapeGroup"></path>
            <path d="M71.0383519,45.9576088 C71.0383519,47.3669755 69.9017383,48.5108093 68.5012679,48.5108093 L63.4270999,48.5108093 L63.4270999,43.4044083 L68.5012679,43.4044083 C69.9017383,43.4044083 71.0383519,44.5482421 71.0383519,45.9576088" id="Fill-6068" fill="#F0F0F0" sketch:type="MSShapeGroup"></path>
            <path d="M71.0383519,35.7448068 C71.0383519,37.1541735 69.9017383,38.2980073 68.5012679,38.2980073 L63.4270999,38.2980073 L63.4270999,33.1916063 L68.5012679,33.1916063 C69.9017383,33.1916063 71.0383519,34.3354402 71.0383519,35.7448068" id="Fill-6069" fill="#F0F0F0" sketch:type="MSShapeGroup"></path>
            <path d="M71.0383519,25.5320049 C71.0383519,26.9413716 69.9017383,28.0852054 68.5012679,28.0852054 L63.4270999,28.0852054 L63.4270999,22.9788044 L68.5012679,22.9788044 C69.9017383,22.9788044 71.0383519,24.1226382 71.0383519,25.5320049" id="Fill-6070" fill="#F0F0F0" sketch:type="MSShapeGroup"></path>
            <path d="M71.0383519,15.3192029 C71.0383519,16.7285696 69.9017383,17.8724034 68.5012679,17.8724034 L63.4270999,17.8724034 L63.4270999,12.7660024 L68.5012679,12.7660024 C69.9017383,12.7660024 71.0383519,13.9098363 71.0383519,15.3192029" id="Fill-6071" fill="#F0F0F0" sketch:type="MSShapeGroup"></path>
            <path d="M27.907924,68.9364132 C27.907924,70.3457799 26.7713103,71.4896137 25.37084,71.4896137 C23.9703696,71.4896137 22.833756,70.3457799 22.833756,68.9364132 L22.833756,63.8300122 L27.907924,63.8300122 L27.907924,68.9364132 Z" id="Fill-6072" fill="#F0F0F0" sketch:type="MSShapeGroup"></path>
            <path d="M38.0562599,68.9364132 C38.0562599,70.3457799 36.9196463,71.4896137 35.5191759,71.4896137 C34.1187056,71.4896137 32.9820919,70.3457799 32.9820919,68.9364132 L32.9820919,63.8300122 L38.0562599,63.8300122 L38.0562599,68.9364132 Z" id="Fill-6073" fill="#F0F0F0" sketch:type="MSShapeGroup"></path>
            <path d="M48.2045959,68.9364132 C48.2045959,70.3457799 47.0679823,71.4896137 45.6675119,71.4896137 C44.2670416,71.4896137 43.1304279,70.3457799 43.1304279,68.9364132 L43.1304279,63.8300122 L48.2045959,63.8300122 L48.2045959,68.9364132 Z" id="Fill-6074" fill="#F0F0F0" sketch:type="MSShapeGroup"></path>
            <path d="M58.3529319,68.9364132 C58.3529319,70.3457799 57.2163183,71.4896137 55.8158479,71.4896137 C54.4153775,71.4896137 53.2787639,70.3457799 53.2787639,68.9364132 L53.2787639,63.8300122 L58.3529319,63.8300122 L58.3529319,68.9364132 Z" id="Fill-6075" fill="#F0F0F0" sketch:type="MSShapeGroup"></path>
            <path d="M57.0843899,57.447011 L13.953962,57.447011 L13.953962,14.0426027 L57.0843899,14.0426027 L57.0843899,57.447011 Z" id="Fill-6076" fill="#5B5C5F" sketch:type="MSShapeGroup"></path>
            <path d="M13.953962,14.0426027 L57.0843899,14.0426027 L13.953962,57.447011 L13.953962,14.0426027 Z" id="Fill-6077" fill="#787878" sketch:type="MSShapeGroup"></path>
            <path d="M17.9806948,20.1650498 L18.6872727,20.1650498 L19.2758762,21.5399483 L19.8682853,20.1650498 L20.5748632,20.1650498 L20.5748632,22.9786767 L19.8644797,22.9786767 L19.8682853,22.1680356 L19.9114158,21.5999485 L19.8873135,21.5961187 L19.5207048,22.5612285 L19.0348532,22.5612285 L18.6593648,21.5961187 L18.6403367,21.5999485 L18.6872727,22.1680356 L18.6872727,22.9786767 L17.9806948,22.9786767 L17.9806948,20.1650498 Z" id="Fill-6078" fill="#979797" sketch:type="MSShapeGroup"></path>
            <path d="M21.7102083,22.0369287 C21.7102083,22.4901218 22.5068527,22.4901218 22.5119269,22.0369287 L22.5119269,20.1654328 L23.226116,20.1654328 L23.226116,22.0369287 C23.2223104,23.3569334 20.990945,23.3569334 20.9960192,22.0369287 L20.9960192,20.1654328 L21.7102083,20.1654328 L21.7102083,22.0369287 Z" id="Fill-6079" fill="#979797" sketch:type="MSShapeGroup"></path>
            <path d="M23.6396607,20.1650498 L24.3513128,20.1650498 L24.3513128,22.27527 L25.4879264,22.27527 L25.4879264,22.9786767 L23.6396607,22.9786767 L23.6396607,20.1650498 Z" id="Fill-6080" fill="#979797" sketch:type="MSShapeGroup"></path>
            <path d="M26.6604398,20.8370522 L26.6604398,22.9791874 L25.9462506,22.9791874 L25.9462506,20.8370522 L25.2041535,20.8370522 L25.2041535,20.1617306 L27.4025368,20.1617306 L27.4025368,20.8370522 L26.6604398,20.8370522 Z" id="Fill-6081" fill="#979797" sketch:type="MSShapeGroup"></path>
            <path d="M28.3823587,22.9788044 L27.6757808,22.9788044 L27.6757808,20.1651775 L28.3823587,20.1651775 L28.3823587,22.9788044 Z" id="Fill-6082" fill="#979797" sketch:type="MSShapeGroup"></path>
            <path d="M30.8631194,22.3865895 C30.6297077,22.8423358 30.2072832,23.0185067 29.855897,23.0185067 C29.3066184,23.0185067 28.7535341,22.6968034 28.7535341,22.0572267 L28.7535341,21.0870105 C28.7535341,20.4512636 29.3066184,20.1257305 29.8685825,20.1257305 C30.2110888,20.1257305 30.625902,20.2725395 30.8517025,20.7729668 L30.2745159,21.0078613 C30.0855031,20.6580728 29.4613805,20.737222 29.4613805,21.0870105 L29.4613805,22.0572267 C29.4613805,22.3942491 30.0931144,22.4899942 30.246608,22.0993545 L30.8631194,22.3865895 Z" id="Fill-6083" fill="#979797" sketch:type="MSShapeGroup"></path>
            <path d="M31.754397,22.0531416 C31.754397,22.2599508 31.9840031,22.3595256 32.208535,22.3595256 C32.4343355,22.3595256 32.6588674,22.256121 32.6588674,22.0531416 L32.6588674,21.0918616 C32.6588674,20.8722863 32.4254557,20.7739881 32.1971182,20.7739881 C31.9751233,20.7739881 31.754397,20.8837757 31.754397,21.0918616 L31.754397,22.0531416 Z M31.0478191,21.0918616 C31.0478191,20.4433486 31.6237372,20.1267518 32.2047294,20.1267518 C32.7844531,20.1267518 33.3654453,20.4484551 33.3654453,21.0918616 L33.3654453,22.0531416 C33.3654453,22.6965481 32.7882587,23.0182513 32.208535,23.0182513 C31.6275428,23.0182513 31.0478191,22.6965481 31.0478191,22.0531416 L31.0478191,21.0918616 Z" id="Fill-6084" fill="#979797" sketch:type="MSShapeGroup"></path>
            <path d="M34.8644814,21.4727991 C35.3110082,21.4727991 35.3110082,20.8293926 34.8644814,20.8293926 L34.4496682,20.8293926 L34.4496682,21.4727991 L34.8644814,21.4727991 Z M34.5765224,22.0842906 L34.4496682,22.0842906 L34.4496682,22.9791874 L33.735479,22.9791874 L33.735479,20.1655604 L34.8530645,20.1655604 C35.4289826,20.1655604 35.8755094,20.4323699 35.8920004,21.0910956 C35.8920004,21.6119485 35.682691,21.9055666 35.3427218,22.012801 L36.1051155,22.9791874 L35.2234788,22.9791874 L34.5765224,22.0842906 Z" id="Fill-6085" fill="#979797" sketch:type="MSShapeGroup"></path>
            <path d="M36.9958857,21.2702026 L38.1299622,21.2702026 L38.1299622,21.8855239 L36.9958857,21.8855239 L36.9958857,22.306802 L38.22764,22.306802 L38.22764,22.9782938 L36.2816965,22.9782938 L36.2816965,20.1646668 L38.22764,20.1646668 L38.22764,20.8336053 L36.9958857,20.8336053 L36.9958857,21.2702026 Z" id="Fill-6086" fill="#979797" sketch:type="MSShapeGroup"></path>
            <path d="M41.3564988,22.3865895 C41.1230871,22.8423358 40.7006626,23.0185067 40.350545,23.0185067 C39.7999978,23.0185067 39.248182,22.6968034 39.248182,22.0572267 L39.248182,21.0870105 C39.248182,20.4512636 39.7999978,20.1257305 40.3619619,20.1257305 C40.7044682,20.1257305 41.1192814,20.2725395 41.3450819,20.7729668 L40.7678953,21.0078613 C40.5788826,20.6580728 39.9547599,20.737222 39.9547599,21.0870105 L39.9547599,22.0572267 C39.9547599,22.3942491 40.5864938,22.4899942 40.7412559,22.0993545 L41.3564988,22.3865895 Z" id="Fill-6087" fill="#979797" sketch:type="MSShapeGroup"></path>
            <path d="M42.7265242,21.5245014 C43.1527543,21.5283312 43.1527543,20.8249245 42.7265242,20.8300309 L42.3155166,20.8300309 L42.3155166,21.5245014 L42.7265242,21.5245014 Z M41.6089387,20.1649221 L42.7265242,20.1649221 C43.4102683,20.1649221 43.748969,20.6627962 43.748969,21.1581171 C43.748969,21.659821 43.4051941,22.1564185 42.7303298,22.1564185 L42.3155166,22.1564185 L42.3155166,22.9785491 L41.6089387,22.9785491 L41.6089387,20.1649221 Z" id="Fill-6088" fill="#979797" sketch:type="MSShapeGroup"></path>
            <path d="M44.7427448,22.0369287 C44.7427448,22.4901218 45.5406577,22.4901218 45.5444634,22.0369287 L45.5444634,20.1654328 L46.259921,20.1654328 L46.259921,22.0369287 C46.2548469,23.3569334 44.02475,23.3569334 44.0285557,22.0369287 L44.0285557,20.1654328 L44.7427448,20.1654328 L44.7427448,22.0369287 Z" id="Fill-6089" fill="#979797" sketch:type="MSShapeGroup"></path>
            <path d="M18.3715326,26.8596691 C18.6353894,27.1852022 19.0946016,27.0779678 19.1098241,26.7486049 C19.1263151,26.4613699 18.955062,26.3311566 18.7419469,26.3311566 C18.5808421,26.3311566 18.4146631,26.39371 18.2890774,26.5660511 L17.9655992,26.5660511 L17.9655992,24.9230666 L19.6235836,24.9230666 L19.6235836,25.5473241 L18.5301004,25.5473241 L18.5301004,25.8651975 C19.2087704,25.6149839 19.8011795,26.0528578 19.8011795,26.7320091 C19.8011795,27.252862 19.4777013,27.7775447 18.7470211,27.7775447 C18.4311541,27.7775447 18.0949905,27.6269059 17.8704585,27.2579684 L18.3715326,26.8596691 Z" id="Fill-6090" fill="#979797" sketch:type="MSShapeGroup"></path>
            <path d="M20.3970136,26.9669036 C20.6139343,26.9669036 20.7927987,27.1417978 20.7927987,27.3600964 C20.7927987,27.5822249 20.6139343,27.7609489 20.3970136,27.7609489 C20.180093,27.7609489 20.0063027,27.5822249 20.0063027,27.3600964 C20.0063027,27.1417978 20.180093,26.9669036 20.3970136,26.9669036" id="Fill-6091" fill="#979797" sketch:type="MSShapeGroup"></path>
            <path d="M21.5162482,26.8596691 C21.780105,27.1852022 22.2380486,27.0779678 22.2545397,26.7486049 C22.2697622,26.4613699 22.0997776,26.3311566 21.8866625,26.3311566 C21.7255577,26.3311566 21.5593787,26.39371 21.433793,26.5660511 L21.1090463,26.5660511 L21.1090463,24.9230666 L22.7670307,24.9230666 L22.7670307,25.5473241 L21.674816,25.5473241 L21.674816,25.8651975 C22.353486,25.6149839 22.9446265,26.0528578 22.9446265,26.7320091 C22.9446265,27.252862 22.6224169,27.7775447 21.8904681,27.7775447 C21.5746012,27.7775447 21.2397061,27.6269059 21.0139056,27.2579684 L21.5162482,26.8596691 Z" id="Fill-6092" fill="#979797" sketch:type="MSShapeGroup"></path>
            <path d="M25.3918978,25.7582184 C25.2384042,25.3816214 24.6142815,25.4684302 24.6142815,25.8373677 L24.6142815,26.803754 C24.6142815,27.2454577 25.4312226,27.2403513 25.4312226,26.803754 L25.4312226,26.7003494 L24.9846958,26.7003494 L24.9846958,26.1041771 L26.1111611,26.1041771 L26.1111611,26.803754 C26.1111611,27.4509904 25.5732993,27.7778 25.0126037,27.7778 C24.4595194,27.7778 23.9077036,27.4509904 23.9077036,26.803754 L23.9077036,25.8373677 C23.9077036,25.2016207 24.4595194,24.8850239 25.0126037,24.8850239 C25.3766753,24.8850239 25.7902199,25.0356627 25.9843069,25.4837494 L25.3918978,25.7582184 Z" id="Fill-6093" fill="#979797" sketch:type="MSShapeGroup"></path>
            <path d="M27.1436274,27.7373318 L26.4332439,27.7373318 L26.4332439,24.9237049 L27.1436274,24.9237049 L27.1436274,25.9896661 L27.9491516,25.9896661 L27.9491516,24.9237049 L28.6595351,24.9237049 L28.6595351,27.7373318 L27.9491516,27.7373318 L27.9491516,26.676477 L27.1436274,26.676477 L27.1436274,27.7373318 Z" id="Fill-6094" fill="#979797" sketch:type="MSShapeGroup"></path>
            <path d="M31.0520053,24.9235772 L31.2016933,25.1623015 L29.9965784,27.0899678 L31.1344605,27.0810316 L31.1344605,27.7372041 L29.0616629,27.7372041 L28.9310031,27.4742245 L30.1399236,25.5835795 L29.0172639,25.5835795 L29.0172639,24.9235772 L31.0520053,24.9235772 Z" id="Fill-6095" fill="#979797" sketch:type="MSShapeGroup"></path>
        </g>
        <g id="Group" sketch:type="MSLayerGroup" transform="translate(265.167372, 265.159225) rotate(-40.000000) translate(-265.167372, -265.159225) translate(234.667372, 223.659225)">
            <path d="M60.1773274,77.5075215 C60.1773274,80.3505234 57.9319609,82.6555557 55.1625502,82.6555557 L5.01477729,82.6555557 C2.24536653,82.6555557 3.69482223e-13,80.3505234 3.69482223e-13,77.5075215 L3.69482223e-13,5.43504275 C3.69482223e-13,2.59204086 2.24536653,0.28700855 5.01477729,0.28700855 L55.1625502,0.28700855 C57.9319609,0.28700855 60.1773274,2.59204086 60.1773274,5.43504275 L60.1773274,77.5075215 Z" id="Fill-2242" fill="#212121" sketch:type="MSShapeGroup"></path>
            <path d="M58.7862282,1.89139341 C57.8722851,0.908118876 56.5910095,0.286493746 55.1630516,0.286493746 L5.01527876,0.286493746 C2.24461431,0.286493746 0.00050147773,2.59152606 0.00050147773,5.43452795 L0.00050147773,62.2405113 L58.7862282,1.89139341 Z" id="Fill-2243" fill="#5B5C5F" sketch:type="MSShapeGroup"></path>
            <path d="M55.1625502,31.1752137 C55.1625502,45.3915102 43.9369712,56.9153847 30.0886637,56.9153847 C16.2403562,56.9153847 5.01477729,45.3915102 5.01477729,31.1752137 C5.01477729,16.9602043 16.2403562,5.43504275 30.0886637,5.43504275 C43.9369712,5.43504275 55.1625502,16.9602043 55.1625502,31.1752137" id="Fill-2244" fill="#FBC02D" sketch:type="MSShapeGroup"></path>
            <path d="M30.0886637,5.43504275 C16.2403562,5.43504275 5.01477729,16.9589173 5.01477729,31.1752137 C5.01477729,38.3361293 7.86818556,44.8110693 12.4654826,49.4764753 L47.916197,13.0837346 C43.3703014,8.36427421 37.0642189,5.43504275 30.0886637,5.43504275" id="Fill-2245" fill="#FDD835" sketch:type="MSShapeGroup"></path>
            <path d="M26.1124468,63.1291907 C24.1541763,65.1394981 20.9785686,65.1394981 19.020298,63.1291907 C17.0620275,61.1188834 17.0620275,57.8588907 19.020298,55.8498704 C20.9785686,53.838276 38.8650255,42.7584194 38.8650255,42.7584194 C38.8650255,42.7584194 28.0707173,61.1188834 26.1124468,63.1291907" id="Fill-2246" fill="#E2E4E5" sketch:type="MSShapeGroup"></path>
            <path d="M38.864524,42.7582907 C38.864524,42.7582907 20.9793208,53.8381473 19.0197966,55.8484547 C17.061526,57.858762 17.061526,61.1200417 19.0197966,63.130349 C19.0398557,63.1496542 19.0624222,63.1625242 19.0812276,63.1805424 L38.6952752,43.0465806 C38.8018393,42.8651124 38.864524,42.7582907 38.864524,42.7582907" id="Fill-2247" fill="#FFFFFF" sketch:type="MSShapeGroup"></path>
            <path d="M35.103441,31.1752137 C35.103441,34.0182156 32.8580745,36.3232479 30.0886637,36.3232479 C27.319253,36.3232479 25.0738864,34.0182156 25.0738864,31.1752137 C25.0738864,28.3322119 27.319253,26.0271795 30.0886637,26.0271795 C32.8580745,26.0271795 35.103441,28.3322119 35.103441,31.1752137" id="Fill-2248" fill="#212121" sketch:type="MSShapeGroup"></path>
            <path d="M5.01477729,77.5075215 L5.01477729,62.0634189 C5.01477729,59.2204171 7.26014382,56.9153847 10.0295546,56.9153847 C12.7989653,56.9153847 15.0443319,59.2204171 15.0443319,62.0634189 C15.0443319,64.9064208 17.2896984,67.2114531 20.0591091,67.2114531 L35.103441,67.2114531 L35.103441,77.5075215 L5.01477729,77.5075215 Z" id="Fill-2249" fill="#26A69A" sketch:type="MSShapeGroup"></path>
            <path d="M55.1625502,77.5075215 L40.1182183,77.5075215 L40.1182183,56.9153847 L50.1477729,56.9153847 L55.1625502,62.0634189 L55.1625502,77.5075215 Z" id="Fill-2250" fill="#26A69A" sketch:type="MSShapeGroup"></path>
            <path d="M25.0738864,59.4894018 C25.0738864,60.9102593 23.9505763,62.0634189 22.5664978,62.0634189 C21.1824193,62.0634189 20.0591091,60.9102593 20.0591091,59.4894018 C20.0591091,58.0685444 21.1824193,56.9153847 22.5664978,56.9153847 C23.9505763,56.9153847 25.0738864,58.0685444 25.0738864,59.4894018" id="Fill-2251" fill="#212121" sketch:type="MSShapeGroup"></path>
            <path d="M8.77586025,6.7220513 C8.77586025,8.14290874 7.65255014,9.2960684 6.26847161,9.2960684 C4.88439308,9.2960684 3.76108297,8.14290874 3.76108297,6.7220513 C3.76108297,5.30119386 4.88439308,4.1480342 6.26847161,4.1480342 C7.65255014,4.1480342 8.77586025,5.30119386 8.77586025,6.7220513" id="Fill-2252" fill="#787878" sketch:type="MSShapeGroup"></path>
            <path d="M56.4162445,6.7220513 C56.4162445,8.14290874 55.2929344,9.2960684 53.9088558,9.2960684 C52.5247773,9.2960684 51.4014672,8.14290874 51.4014672,6.7220513 C51.4014672,5.30119386 52.5247773,4.1480342 53.9088558,4.1480342 C55.2929344,4.1480342 56.4162445,5.30119386 56.4162445,6.7220513" id="Fill-2253" fill="#787878" sketch:type="MSShapeGroup"></path>
            <path d="M30.0886637,26.0271795 C27.319253,26.0271795 25.0738864,28.3322119 25.0738864,31.1752137 C25.0738864,32.6501255 25.6856893,33.9718833 26.654795,34.9101126 L33.7268846,27.6500973 C32.8129415,26.6552397 31.5253974,26.0271795 30.0886637,26.0271795" id="Fill-2254" fill="#5B5C5F" sketch:type="MSShapeGroup"></path>
        </g>
        <g id="Group" sketch:type="MSLayerGroup" transform="translate(469.312164, 210.929084) rotate(-24.000000) translate(-469.312164, -210.929084) translate(412.888638, 135.595148)">
            <path d="M112.847053,145.959501 C112.847053,148.558522 110.740575,150.667872 108.145092,150.667872 L4.70196054,150.667872 C2.10647832,150.667872 0,148.558522 0,145.959501 L0,4.70837101 C0,2.10935021 2.10647832,0 4.70196054,0 L108.145092,0 C110.740575,0 112.847053,2.10935021 112.847053,4.70837101 L112.847053,145.959501 Z" id="Fill-2204" fill="#FFFFFF" sketch:type="MSShapeGroup"></path>
            <path d="M103.443132,131.834388 L9.40392108,131.834388 L9.40392108,18.8334841 L103.443132,18.8334841 L103.443132,131.834388 Z" id="Fill-2205" fill="#212121" sketch:type="MSShapeGroup"></path>
            <path d="M9.40392108,104.588929 L95.0430794,18.8330132 L9.40392108,18.8330132 L9.40392108,104.588929 Z" id="Fill-2206" fill="#5B5C5F" sketch:type="MSShapeGroup"></path>
            <path d="M58.7745068,9.41674203 C58.7745068,10.7186066 57.7212676,11.7709275 56.4235265,11.7709275 C55.1257854,11.7709275 54.0725462,10.7186066 54.0725462,9.41674203 C54.0725462,8.11723163 55.1257854,7.06255652 56.4235265,7.06255652 C57.7212676,7.06255652 58.7745068,8.11723163 58.7745068,9.41674203" id="Fill-2207" fill="#212121" sketch:type="MSShapeGroup"></path>
            <path d="M61.125487,141.25113 C61.125487,143.850151 59.0190087,145.959501 56.4235265,145.959501 C53.8280443,145.959501 51.721566,143.850151 51.721566,141.25113 C51.721566,138.65211 53.8280443,136.542759 56.4235265,136.542759 C59.0190087,136.542759 61.125487,138.65211 61.125487,141.25113" id="Fill-2208" fill="#CFD3D4" sketch:type="MSShapeGroup"></path>
        </g>
        <g id="Webcam" sketch:type="MSLayerGroup" transform="translate(322.460938, 379.297280)">
            <ellipse id="ombre" fill-opacity="0.200000018" fill="#000000" sketch:type="MSShapeGroup" cx="32.5206521" cy="62.6418873" rx="31.2511209" ry="8.78043236"></ellipse>
            <path d="M62.9830078,59.5232434 C61.3296875,55.4007628 57.5328125,50.7887254 52.5455078,45.8460654 C56.9107422,40.9779672 59.5699219,34.5352423 59.5699219,27.4705154 C59.5699219,15.9919283 52.5582031,6.16154857 42.6070313,2.05084089 C39.4039062,0.726388536 35.8980469,0.000392430327 32.2261719,0.000392430327 C28.525,0.000392430327 24.9996094,0.736199294 21.7769531,2.08027317 C11.8648438,6.20079161 4.88242188,16.0213606 4.88242188,27.4705154 C4.88242188,34.5352423 7.54257812,40.9779672 11.9068359,45.8460654 C5.0875,52.6056778 2.8375,56.3818387 1.15976563,59.9971031 C0.866796875,60.6289159 0.901953125,61.3863064 1.39804687,62.0249868 C1.76328125,62.4959032 2.31894531,62.7892448 2.92929688,62.7892448 L20.6822266,62.7892448 L61.5230469,62.7892448 C62.2925781,62.7892448 62.9898438,62.3350067 63.3052734,61.6305943 C63.6197266,60.9252008 63.49375,60.1010971 62.9830078,59.5232434" id="Fill-3354" fill="#F0F0F0" sketch:type="MSShapeGroup"></path>
            <path d="M32.2265625,0 C28.5253906,0 25,0.735806864 21.7773438,2.07988074 C11.8652344,6.20039918 4.8828125,16.0209681 4.8828125,27.4701229 C4.8828125,34.535831 7.54199219,40.9775748 11.9072266,45.845673 C5.08691406,52.6062665 2.83691406,56.3814462 1.16015625,59.9976917 C0.866210938,60.6295045 0.90234375,61.385914 1.3984375,62.0255754 C1.76269531,62.4955107 2.31933594,62.7888524 2.9296875,62.7888524 L20.6816406,62.7888524 L32.2265625,62.7888524 L32.2265625,0 Z" id="Fill-3355" fill="#FFFFFF" sketch:type="MSShapeGroup"></path>
            <path d="M59.5703125,27.4701229 C59.5703125,42.6375551 47.3242188,54.9402459 32.2265625,54.9402459 C17.1289062,54.9402459 4.8828125,42.6375551 4.8828125,27.4701229 C4.8828125,12.3017097 17.1328125,0 32.2265625,0 C47.3222656,0 59.5703125,12.3046529 59.5703125,27.4701229" id="Fill-3356" fill="#CFD3D4" sketch:type="MSShapeGroup"></path>
            <path d="M43.9095703,11.7729098 L43.9457031,11.7729098 C41.8353516,8.67271024 41.5130859,5.41553852 42.6078125,2.05044846 C39.4046875,0.725996106 35.8978516,0 32.2269531,0 C28.5257812,0 24.9994141,0.735806864 21.7767578,2.07988074 C23.0462891,6.02380553 22.490625,9.19268042 20.5082031,11.7729098 L20.5433594,11.7729098 C15.7875,15.3518744 12.6957031,21.0411331 12.6957031,27.4701229 C12.6957031,38.3070864 21.4398438,47.0916393 32.2269531,47.0916393 C43.0140625,47.0916393 51.7582031,38.3070864 51.7582031,27.4701229 C51.7582031,21.0411331 48.6664063,15.3518744 43.9095703,11.7729098" id="Fill-3357" fill="#FFFFFF" sketch:type="MSShapeGroup"></path>
            <path d="M21.7771484,2.07997884 C11.8650391,6.20049728 4.88261719,16.0210662 4.88261719,27.470221 C4.88261719,42.6376532 17.1287109,54.940344 32.2263672,54.940344 L32.2263672,9.81075822e-05 C28.5251953,9.81075822e-05 24.9998047,0.735904972 21.7771484,2.07997884" id="Fill-3358" fill="#E2E4E5" sketch:type="MSShapeGroup"></path>
            <path d="M21.7771484,2.07997884 C23.0466797,6.02390364 22.4900391,9.19277853 20.5076172,11.7730079 L20.54375,11.7730079 C15.7869141,15.3519725 12.6951172,21.0412312 12.6951172,27.470221 C12.6951172,38.3071845 21.4392578,47.0917374 32.2263672,47.0917374 L32.2263672,9.81075822e-05 C28.5251953,9.81075822e-05 24.9998047,0.735904972 21.7771484,2.07997884" id="Fill-3359" fill="#FFFFFF" sketch:type="MSShapeGroup"></path>
            <path d="M43.9453125,27.4701229 C43.9453125,33.9717124 38.6982422,39.2430328 32.2265625,39.2430328 C25.7548828,39.2430328 20.5078125,33.9717124 20.5078125,27.4701229 C20.5078125,20.9685335 25.7548828,15.6972131 32.2265625,15.6972131 C38.6982422,15.6972131 43.9453125,20.9685335 43.9453125,27.4701229" id="Fill-3360" fill="#64B5F7" sketch:type="MSShapeGroup"></path>
            <path d="M35.15625,7.84860655 C35.15625,9.47424918 33.8447266,10.791834 32.2265625,10.791834 C30.6083984,10.791834 29.296875,9.47424918 29.296875,7.84860655 C29.296875,6.22296392 30.6083984,4.90537909 32.2265625,4.90537909 C33.8447266,4.90537909 35.15625,6.22296392 35.15625,7.84860655" id="Fill-3361" fill="#EF5350" sketch:type="MSShapeGroup"></path>
        </g>
        <g id="Group" sketch:type="MSLayerGroup" transform="translate(64.746094, 144.623944)" fill="#FFFFFF">
            <path d="M35.9375,47.6497267 C35.9375,51.621736 32.7192969,54.8421383 28.75,54.8421383 C24.7807031,54.8421383 21.5625,51.621736 21.5625,47.6497267 C21.5625,43.6777174 24.7807031,40.4573151 28.75,40.4573151 C32.7192969,40.4573151 35.9375,43.6777174 35.9375,47.6497267" id="Fill-1614" sketch:type="MSShapeGroup"></path>
            <path d="M56.7305781,8.63844592 C57.4906563,9.16978533 57.7233516,10.1794201 57.2678438,10.9795759 L56.2768672,12.7219376 C55.7719453,13.6102004 54.6156563,13.9104836 53.7288984,13.3782452 C46.1748359,8.84163155 37.4653828,6.57961811 28.7505391,6.57961811 C20.0267109,6.57961811 11.3190547,8.84522776 3.77217969,13.3782452 C2.88721875,13.9095846 1.72823438,13.6075033 1.22421094,12.7219376 L0.233234375,10.9795759 C-0.223171875,10.177622 0.008625,9.17068438 0.7705,8.63844592 C9.09991406,2.8134916 18.9665547,0.000359620579 28.7505391,0.000359620579 C38.5372188,0.000359620579 48.4029609,2.81439065 56.7305781,8.63844592" id="Fill-1615" sketch:type="MSShapeGroup"></path>
            <path d="M50.5274961,19.3757275 C51.3369883,19.8899849 51.6029258,20.9346827 51.1321445,21.762709 L49.5553867,24.5362828 C49.0324961,25.4560124 47.8205039,25.7383145 46.9328477,25.1449406 C41.8485898,21.7465261 35.5559336,19.7407423 28.7502695,19.7407423 C21.9455039,19.7407423 15.6519492,21.7465261 10.5676914,25.1449406 C9.68003516,25.7383145 8.46534766,25.4515171 7.94515234,24.5362828 L6.36839453,21.762709 C5.89761328,20.9337836 6.16265234,19.8908839 6.97304297,19.3757275 C13.1390195,15.4594593 20.6571445,13.1596857 28.7502695,13.1596857 C36.8433945,13.1596857 44.362418,15.4594593 50.5274961,19.3757275" id="Fill-1616" sketch:type="MSShapeGroup"></path>
            <path d="M43.8940625,31.3772551 C44.6011328,31.9229794 44.7996875,32.895753 44.36125,33.6680382 L42.7251953,36.5405076 C42.1546875,37.5420509 40.7863672,37.7695109 39.9121875,37.001721 C37.0282031,34.4672949 33.0921484,32.9002483 28.7508984,32.9002483 C24.4096484,32.9002483 20.4726953,34.4672949 17.5887109,37.00262 C16.7154297,37.7695109 15.3444141,37.5393537 14.7757031,36.5405076 L13.1405469,33.6680382 C12.6994141,32.8939549 12.8979688,31.9247775 13.6068359,31.3772551 C17.6839453,28.2251808 22.9685547,26.3209898 28.7508984,26.3209898 C34.5323438,26.3209898 39.8169531,28.2251808 43.8940625,31.3772551" id="Fill-1617" sketch:type="MSShapeGroup"></path>
        </g>
        <g id="Group" sketch:type="MSLayerGroup" transform="translate(45.703125, 302.773366)">
            <path d="M81.25,58.668334 C81.25,60.0776494 80.1125,61.2191311 78.7109375,61.2191311 L2.5390625,61.2191311 C1.1375,61.2191311 0,60.0776494 0,58.668334 L0,7.65239139 C0,6.24435137 1.1375,5.10159426 2.5390625,5.10159426 L30.46875,5.10159426 L30.46875,2.55079713 C30.46875,1.14275711 31.60625,0 33.0078125,0 L78.7109375,0 C80.1125,0 81.25,1.14275711 81.25,2.55079713 L81.25,58.668334 Z" id="Fill-2008" fill="#F0F0F0" sketch:type="MSShapeGroup"></path>
            <path d="M33.0078125,0 C31.60625,0 30.46875,1.14275711 30.46875,2.55079713 L30.46875,5.10159426 L2.5390625,5.10159426 C1.1375,5.10159426 0,6.24435137 0,7.65239139 L0,58.668334 C0,59.0700845 0.100292969,59.4450517 0.265332031,59.7830323 L59.7733398,0 L33.0078125,0 Z" id="Fill-2009" fill="#FFFFFF" sketch:type="MSShapeGroup"></path>
            <path d="M22.8515625,5.10159426 L5.078125,5.10159426 L5.078125,1.27539856 C5.078125,0.571378557 5.646875,0 6.34765625,0 L21.5820312,0 C22.2828125,0 22.8515625,0.571378557 22.8515625,1.27539856 L22.8515625,5.10159426 Z" id="Fill-2010" fill="#FFFFFF" sketch:type="MSShapeGroup"></path>
            <path d="M76.171875,14.0293842 C76.171875,14.7346796 75.603125,15.3047828 74.9023438,15.3047828 L62.2070312,15.3047828 C61.50625,15.3047828 60.9375,14.7346796 60.9375,14.0293842 L60.9375,6.37699282 C60.9375,5.67297282 61.50625,5.10159426 62.2070312,5.10159426 L74.9023438,5.10159426 C75.603125,5.10159426 76.171875,5.67297282 76.171875,6.37699282 L76.171875,14.0293842 Z" id="Fill-2011" fill="#64B5F7" sketch:type="MSShapeGroup"></path>
            <path d="M15.234375,12.7539856 C15.234375,14.1633011 14.096875,15.3047828 12.6953125,15.3047828 C11.29375,15.3047828 10.15625,14.1633011 10.15625,12.7539856 C10.15625,11.3459456 11.29375,10.2031885 12.6953125,10.2031885 C14.096875,10.2031885 15.234375,11.3459456 15.234375,12.7539856" id="Fill-2012" fill="#5B5C5F" sketch:type="MSShapeGroup"></path>
            <path d="M10.15625,5.10159426 L7.6171875,5.10159426 L7.6171875,0 L10.15625,0 L10.15625,5.10159426 Z" id="Fill-2013" fill="#E2E4E5" sketch:type="MSShapeGroup"></path>
            <path d="M15.234375,5.10159426 L12.6953125,5.10159426 L12.6953125,0 L15.234375,0 L15.234375,5.10159426 Z" id="Fill-2014" fill="#E2E4E5" sketch:type="MSShapeGroup"></path>
            <path d="M20.3125,5.10159426 L17.7734375,5.10159426 L17.7734375,0 L20.3125,0 L20.3125,5.10159426 Z" id="Fill-2015" fill="#E2E4E5" sketch:type="MSShapeGroup"></path>
            <path d="M81.25,56.1175368 L0,56.1175368 L0,20.406377 L81.25,20.406377 L81.25,56.1175368 Z" id="Fill-2016" fill="#212121" sketch:type="MSShapeGroup"></path>
            <path d="M0,20.406377 L0,56.1175368 L3.91396484,56.1175368 L39.4608398,20.406377 L0,20.406377 Z" id="Fill-2017" fill="#5B5C5F" sketch:type="MSShapeGroup"></path>
            <path d="M66.015625,35.7111598 C66.015625,46.9818569 56.9207031,56.1175368 45.703125,56.1175368 C34.4855469,56.1175368 25.390625,46.9818569 25.390625,35.7111598 C25.390625,24.4404627 34.4855469,15.3047828 45.703125,15.3047828 C56.9207031,15.3047828 66.015625,24.4404627 66.015625,35.7111598" id="Fill-2018" fill="#FFFFFF" sketch:type="MSShapeGroup"></path>
            <path d="M60.9375,35.7111598 C60.9375,44.1632261 54.1163086,51.0159426 45.703125,51.0159426 C37.2899414,51.0159426 30.46875,44.1632261 30.46875,35.7111598 C30.46875,27.2590935 37.2899414,20.406377 45.703125,20.406377 C54.1163086,20.406377 60.9375,27.2590935 60.9375,35.7111598" id="Fill-2019" fill="#42A5F6" sketch:type="MSShapeGroup"></path>
            <path d="M45.703125,20.406377 C37.2899414,20.406377 30.46875,27.2590935 30.46875,35.7111598 C30.46875,39.9684402 32.2016602,43.8163177 34.9933594,46.591585 L56.5334961,24.9518975 C53.7709961,22.1472961 49.9408203,20.406377 45.703125,20.406377" id="Fill-2020" fill="#64B5F7" sketch:type="MSShapeGroup"></path>
            <path d="M20.3125,43.3635512 C20.3125,44.7728666 19.175,45.9143483 17.7734375,45.9143483 C16.371875,45.9143483 15.234375,44.7728666 15.234375,43.3635512 L15.234375,38.2619569 C15.234375,36.8539169 16.371875,35.7111598 17.7734375,35.7111598 C19.175,35.7111598 20.3125,36.8539169 20.3125,38.2619569 L20.3125,43.3635512 Z" id="Fill-2021" fill="#787878" sketch:type="MSShapeGroup"></path>
        </g>
        <g id="Clavier" sketch:type="MSLayerGroup" transform="translate(993.000000, 471.000000)">
            <path d="M75.7705409,48.3144391 L4.67679094,48.3144391 C1.87239641,48.3144391 -0.213792285,46.2128319 0.0175197043,43.6207323 L3.26363634,7.244504 C3.49494833,4.65240438 5.72765404,2.55079713 8.25013708,2.55079713 L72.1971948,2.55079713 C74.7196779,2.55079713 76.9523836,4.65240438 77.1836955,7.244504 L80.4298122,43.6207323 C80.6611242,46.2128319 78.5749355,48.3144391 75.7705409,48.3144391 Z" id="Fill-2209" fill-opacity="0.2" fill="#000000" sketch:type="MSShapeGroup"></path>
            <path d="M75.7705409,45.763642 L4.67679094,45.763642 C1.87239641,45.763642 -0.213792285,43.6620348 0.0175197043,41.0699351 L3.26363634,4.69370687 C3.49494833,2.10160725 5.72765404,0 8.25013708,0 L72.1971948,0 C74.7196779,0 76.9523836,2.10160725 77.1836955,4.69370687 L80.4298122,41.0699351 C80.6611242,43.6620348 78.5749355,45.763642 75.7705409,45.763642 Z" id="Fill-2209" fill="#FFFFFF" sketch:type="MSShapeGroup"></path>
            <path d="M10.15625,12.3460983 L10.4965687,7.65239139 L15.1427507,7.65239139 L14.8547888,12.3460983 L10.15625,12.3460983 Z" id="Fill-2212" fill="#CFD3D4" sketch:type="MSShapeGroup"></path>
            <path d="M19.0429688,12.3460983 L19.278574,7.65239139 L23.9247561,7.65239139 L23.7415075,12.3460983 L19.0429688,12.3460983 Z" id="Fill-2213" fill="#CFD3D4" sketch:type="MSShapeGroup"></path>
            <path d="M27.9296875,12.3460983 L28.0605793,7.65239139 L32.7067614,7.65239139 L32.6282263,12.3460983 L27.9296875,12.3460983 Z" id="Fill-2214" fill="#CFD3D4" sketch:type="MSShapeGroup"></path>
            <path d="M38.0859375,12.3460983 L38.1121159,7.65239139 L42.7582979,7.65239139 L42.7844763,12.3460983 L38.0859375,12.3460983 Z" id="Fill-2215" fill="#CFD3D4" sketch:type="MSShapeGroup"></path>
            <path d="M47.0511913,12.3460983 L46.9726563,7.65239139 L51.6188383,7.65239139 L51.7497301,12.3460983 L47.0511913,12.3460983 Z" id="Fill-2216" fill="#CFD3D4" sketch:type="MSShapeGroup"></path>
            <path d="M56.0426235,12.3460983 L55.859375,7.65239139 L60.5055571,7.65239139 L60.7411623,12.3460983 L56.0426235,12.3460983 Z" id="Fill-2217" fill="#CFD3D4" sketch:type="MSShapeGroup"></path>
            <path d="M66.303587,12.3460983 L66.015625,7.65239139 L70.6618071,7.65239139 L71.0021257,12.3460983 L66.303587,12.3460983 Z" id="Fill-2218" fill="#CFD3D4" sketch:type="MSShapeGroup"></path>
            <path d="M8.88671875,21.2738882 L9.22703743,16.5801813 L13.9779329,16.5801813 L13.689971,21.2738882 L8.88671875,21.2738882 Z" id="Fill-2219" fill="#CFD3D4" sketch:type="MSShapeGroup"></path>
            <path d="M19.0429687,21.2738882 L19.278574,16.5801813 L24.0294695,16.5801813 L23.846221,21.2738882 L19.0429687,21.2738882 Z" id="Fill-2220" fill="#CFD3D4" sketch:type="MSShapeGroup"></path>
            <path d="M27.9296875,21.2738882 L28.0605793,16.5801813 L32.8114748,16.5801813 L32.7329397,21.2738882 L27.9296875,21.2738882 Z" id="Fill-2221" fill="#CFD3D4" sketch:type="MSShapeGroup"></path>
            <path d="M38.0859375,21.2738882 L38.1121159,16.5801813 L42.8630114,16.5801813 L42.8891897,21.2738882 L38.0859375,21.2738882 Z" id="Fill-2222" fill="#CFD3D4" sketch:type="MSShapeGroup"></path>
            <path d="M47.0511913,21.2738882 L46.9726562,16.5801813 L51.7235518,16.5801813 L51.8544436,21.2738882 L47.0511913,21.2738882 Z" id="Fill-2223" fill="#CFD3D4" sketch:type="MSShapeGroup"></path>
            <path d="M57.3121548,21.2738882 L57.1289062,16.5801813 L61.8798018,16.5801813 L62.115407,21.2738882 L57.3121548,21.2738882 Z" id="Fill-2224" fill="#CFD3D4" sketch:type="MSShapeGroup"></path>
            <path d="M66.303587,21.2738882 L66.015625,16.5801813 L70.7665205,16.5801813 L71.1068392,21.2738882 L66.303587,21.2738882 Z" id="Fill-2225" fill="#CFD3D4" sketch:type="MSShapeGroup"></path>
            <path d="M7.6171875,31.4770767 L7.95750618,26.7833699 L12.8131151,26.7833699 L12.5251532,31.4770767 L7.6171875,31.4770767 Z" id="Fill-2226" fill="#CFD3D4" sketch:type="MSShapeGroup"></path>
            <path d="M17.7734375,31.4770767 L18.0090427,26.7833699 L22.8646517,26.7833699 L22.6814032,31.4770767 L17.7734375,31.4770767 Z" id="Fill-2227" fill="#CFD3D4" sketch:type="MSShapeGroup"></path>
            <path d="M27.9296875,31.4770767 L28.0605793,26.7833699 L32.9161882,26.7833699 L32.8376532,31.4770767 L27.9296875,31.4770767 Z" id="Fill-2228" fill="#CFD3D4" sketch:type="MSShapeGroup"></path>
            <path d="M38.0859375,31.4770767 L38.1121159,26.7833699 L42.9677248,26.7833699 L42.9939032,31.4770767 L38.0859375,31.4770767 Z" id="Fill-2229" fill="#CFD3D4" sketch:type="MSShapeGroup"></path>
            <path d="M47.0511913,31.4770767 L46.9726563,26.7833699 L51.8282652,26.7833699 L51.959157,31.4770767 L47.0511913,31.4770767 Z" id="Fill-2230" fill="#CFD3D4" sketch:type="MSShapeGroup"></path>
            <path d="M57.3121548,31.4770767 L57.1289062,26.7833699 L61.9845152,26.7833699 L62.2201204,31.4770767 L57.3121548,31.4770767 Z" id="Fill-2231" fill="#CFD3D4" sketch:type="MSShapeGroup"></path>
            <path d="M67.5731182,31.4770767 L67.2851563,26.7833699 L72.1407652,26.7833699 L72.4810839,31.4770767 L67.5731182,31.4770767 Z" id="Fill-2232" fill="#CFD3D4" sketch:type="MSShapeGroup"></path>
            <path d="M7.6171875,40.4048667 L7.95750618,35.7111598 L12.9178286,35.7111598 L12.6298666,40.4048667 L7.6171875,40.4048667 Z" id="Fill-2233" fill="#CFD3D4" sketch:type="MSShapeGroup"></path>
            <path d="M67.5731182,40.4048667 L67.2851563,35.7111598 L72.2454786,35.7111598 L72.5857973,40.4048667 L67.5731182,40.4048667 Z" id="Fill-2234" fill="#CFD3D4" sketch:type="MSShapeGroup"></path>
            <path d="M20.3125,40.4048667 L20.5219269,35.7111598 L60.2045059,35.7111598 L60.4139328,40.4048667 L20.3125,40.4048667 Z" id="Fill-2235" fill="#CFD3D4" sketch:type="MSShapeGroup"></path>
        </g>
        <g id="Souris" sketch:type="MSLayerGroup" transform="translate(1120.073187, 496.188481) rotate(-11.000000) translate(-1120.073187, -496.188481) translate(1102.946245, 473.857695)">
            <ellipse id="ombre" fill-opacity="0.200000018" fill="#000000" sketch:type="MSShapeGroup" transform="translate(17.003642, 22.674413) rotate(5.000000) translate(-17.003642, -22.674413) " cx="17.0036424" cy="22.6744126" rx="14.7413486" ry="20.5936664"></ellipse>
            <path d="M32.9852211,14.7325188 L32.9852211,24.8248742 C32.9852211,32.2570529 27.0215962,38.2813481 19.6642665,38.2813481 C12.3069367,38.2813481 6.34331176,32.2570529 6.34331176,24.8248742 L6.34331176,14.7325188 L32.9852211,14.7325188 Z" id="Fill-2236" fill="#F0F0F0" sketch:type="MSShapeGroup"></path>
            <path d="M26.3247438,1.27604494 L19.6642665,1.27604494 L13.0037891,1.27604494 C9.32387537,1.27604494 6.34331176,4.28693096 6.34331176,8.00428187 L6.34331176,14.7325188 L19.6642665,14.7325188 L32.9852211,14.7325188 L32.9852211,8.00428187 C32.9852211,4.28693096 30.0046575,1.27604494 26.3247438,1.27604494" id="Fill-2237" fill="#FFFFFF" sketch:type="MSShapeGroup"></path>
            <path d="M21.3293858,17.2556077 C21.3293858,18.1841043 20.5834123,18.9376669 19.6642665,18.9376669 C18.7451206,18.9376669 17.9991471,18.1841043 17.9991471,17.2556077 L17.9991471,12.20943 C17.9991471,11.2809333 18.7451206,10.5273707 19.6642665,10.5273707 C20.5834123,10.5273707 21.3293858,11.2809333 21.3293858,12.20943 L21.3293858,17.2556077 Z" id="Fill-2240" fill="#5B5C5F" sketch:type="MSShapeGroup"></path>
            <path d="M21.3293858,14.7325188 L21.3293858,12.20943 C21.3293858,11.2809333 20.5834123,10.5273707 19.6642665,10.5273707 C18.7451206,10.5273707 17.9991471,11.2809333 17.9991471,12.20943 L17.9991471,14.7325188 L21.3293858,14.7325188 Z" id="Fill-2241" fill="#787878" sketch:type="MSShapeGroup"></path>
        </g>
        <g id="Group" sketch:type="MSLayerGroup" transform="translate(371.972656, 468.575179)">
            <rect id="ombre" fill-opacity="0.2" fill="#000000" sketch:type="MSShapeGroup" x="0" y="81.6255081" width="97.7539062" height="16.5801813" rx="8"></rect>
            <path d="M97.7539062,68.4156114 L97.7539062,84.1975187 C97.7539062,87.5706343 95.0198517,90.3027053 91.6442871,90.3027053 L6.10961914,90.3027053 C2.73405457,90.3027053 0,87.5706343 0,84.1975187 L0,68.4156114 C0,67.5303594 0.198562622,66.6603703 0.549865723,65.881959 C0.85534668,65.2256514 1.26774597,64.6151328 1.7870636,64.0961919 L10.4321747,55.4573529 C11.5777283,54.3126304 13.1356812,53.6715858 14.7547302,53.6715858 L82.999176,53.6715858 C84.6182251,53.6715858 86.176178,54.3126304 87.3217316,55.4573529 L95.9668427,64.0961919 C96.4861603,64.6151328 96.8985596,65.2256514 97.2040405,65.881959 C97.5553436,66.6603703 97.7539062,67.5303594 97.7539062,68.4156114" id="Fill-2120" fill="#FFFFFF" sketch:type="MSShapeGroup"></path>
            <path d="M51.9317627,27.7242376 C51.9317627,26.0392062 50.563208,24.6716444 48.8769531,24.6716444 C47.1906982,24.6716444 45.8221436,26.0392062 45.8221436,27.7242376 L45.8221436,53.6712806 L51.9317627,53.6712806 L51.9317627,27.7242376 Z" id="Fill-2121" fill="#212121" sketch:type="MSShapeGroup"></path>
            <path d="M34.441145,34.8086961 C33.4972089,35.6512119 32.0492291,35.5703182 31.2061017,34.6270668 C27.8259549,30.8479564 25.9655759,25.9729649 25.9655759,20.9010811 C25.9655759,15.8856704 27.7908246,11.0534152 31.1037656,7.29109397 C31.9407834,6.34326376 33.3872357,6.25015966 34.3372815,7.08504393 C35.2873273,7.92145449 35.3789716,9.36685741 34.5434811,10.3162139 C31.9667493,13.2405983 30.5477902,16.9998669 30.5477902,20.9010811 C30.5477902,24.846558 31.9942426,28.6378788 34.6229062,31.5759999 C35.4645062,32.5161986 35.3866086,33.9631278 34.441145,34.8086961" id="Fill-2122" fill="#FDD835" sketch:type="MSShapeGroup"></path>
            <path d="M25.7273007,4.21865883 C21.0259488,8.47550017 18.3285519,14.5486345 18.3285519,20.8842919 C18.3285519,27.2062126 21.0167844,33.2701891 25.7013348,37.5255042 C26.637634,38.3756514 26.7078946,39.8225806 25.8556027,40.7597268 C25.0048383,41.6953466 23.5553311,41.7655562 22.619032,40.9138827 C16.9798535,35.7931575 13.7463376,28.4928806 13.7463376,20.8842919 C13.7463376,13.2589138 16.9920728,5.94795293 22.6511075,0.824175097 C23.5904614,-0.0229195395 25.0384412,0.0488164028 25.8876782,0.985962541 C26.7369153,1.92158238 26.6681821,3.3669853 25.7273007,4.21865883" id="Fill-2123" fill="#FDD835" sketch:type="MSShapeGroup"></path>
            <path d="M63.3127612,34.8086961 C64.2566974,35.6512119 65.7046771,35.5703182 66.5478046,34.6270668 C69.926424,30.8479564 71.7883304,25.9729649 71.7883304,20.9010811 C71.7883304,15.8856704 69.9630817,11.0534152 66.6501407,7.29109397 C65.8131229,6.34326376 64.3666705,6.25015966 63.4166248,7.08504393 C62.466579,7.92145449 62.3749347,9.36685741 63.2104251,10.3162139 C65.787157,13.2405983 67.206116,16.9998669 67.206116,20.9010811 C67.206116,24.846558 65.7596637,28.6378788 63.1310001,31.5759999 C62.2894,32.5161986 62.3672977,33.9631278 63.3127612,34.8086961" id="Fill-2124" fill="#FDD835" sketch:type="MSShapeGroup"></path>
            <path d="M72.0259946,4.21865883 C76.7288739,8.47550017 79.4247433,14.5486345 79.4247433,20.8842919 C79.4247433,27.2062126 76.7380383,33.2701891 72.0534879,37.5255042 C71.1171887,38.3756514 71.0469281,39.8225806 71.8976926,40.7597268 C72.748457,41.6953466 74.1979642,41.7655562 75.1342633,40.9138827 C80.7734418,35.7931575 84.0069577,28.4928806 84.0069577,20.8842919 C84.0069577,13.2589138 80.7612225,5.94795293 75.1021878,0.824175097 C74.1643613,-0.0229195395 72.7163815,0.0488164028 71.8656171,0.985962541 C71.0179074,1.92158238 71.0851132,3.3669853 72.0259946,4.21865883" id="Fill-2125" fill="#FDD835" sketch:type="MSShapeGroup"></path>
            <path d="M97.7539062,68.3976011 L97.7539062,84.1779821 L0,84.1779821 L0,68.3976011 C0,67.5123491 0.198562622,66.64236 0.549865723,65.8624224 L97.2040405,65.8624224 C97.5553436,66.64236 97.7539062,67.5123491 97.7539062,68.3976011" id="Fill-2126" fill="#212121" sketch:type="MSShapeGroup"></path>
            <path d="M61.0961914,78.0920269 L54.9865723,78.0920269 L54.9865723,75.0394336 L61.0961914,75.0394336 L61.0961914,78.0920269 Z" id="Fill-2127" fill="#EF6C00" sketch:type="MSShapeGroup"></path>
            <path d="M73.3154297,78.0920269 L67.2058105,78.0920269 L67.2058105,75.0394336 L73.3154297,75.0394336 L73.3154297,78.0920269 Z" id="Fill-2128" fill="#FFEE58" sketch:type="MSShapeGroup"></path>
            <path d="M85.534668,78.0920269 L79.4250488,78.0920269 L79.4250488,75.0394336 L85.534668,75.0394336 L85.534668,78.0920269 Z" id="Fill-2129" fill="#4DB6AC" sketch:type="MSShapeGroup"></path>
            <path d="M50.4043579,65.8630329 L0.725517273,65.8630329 C0.374214172,66.6414442 0.17565155,67.5129596 0.17565155,68.3982116 L0.17565155,84.1785926 L32.0755005,84.1785926 L50.4043579,65.8630329 Z" id="Fill-2130" fill="#5B5C5F" sketch:type="MSShapeGroup"></path>
        </g>
        <g id="Group" sketch:type="MSLayerGroup" transform="translate(147.265625, 430.313222)">
            <path d="M14.9212336,102.031885 L109.492829,102.031885 C113.491137,102.031885 117.748507,105.743392 119.000792,110.317612 L122.145677,121.804927 C123.398472,126.381007 120.724351,130.090654 116.154557,130.090654 L8.25950551,130.090654 C3.69790658,130.090654 1.01610006,126.379147 2.26838542,121.804927 L5.41327046,110.317612 C6.66606514,105.741531 10.9157419,102.031885 14.9212336,102.031885 Z" id="ombre" fill-opacity="0.2" fill="#000000" sketch:type="MSShapeGroup"></path>
            <path d="M0,101.553611 L124.414062,101.553611 C123.31572,114.800498 112.293411,124.989059 99.0608093,124.989059 L25.3532532,124.989059 C12.1206512,124.989059 1.0983429,114.800498 0,101.553611" id="Fill-2131" fill="#E2E4E5" sketch:type="MSShapeGroup"></path>
            <path d="M38.8793945,101.553611 C38.8793945,101.553611 42.767334,113.271335 62.2070312,113.271335 C81.6467285,113.271335 85.534668,101.553611 85.534668,101.553611 L38.8793945,101.553611 Z" id="Fill-2132" fill="#979797" sketch:type="MSShapeGroup"></path>
            <path d="M106.918335,113.271335 C106.918335,115.427396 105.176538,117.177243 103.030396,117.177243 C100.884253,117.177243 99.1424561,115.427396 99.1424561,113.271335 C99.1424561,111.115274 100.884253,109.365427 103.030396,109.365427 C105.176538,109.365427 106.918335,111.115274 106.918335,113.271335" id="Fill-2133" fill="#EF5350" sketch:type="MSShapeGroup"></path>
            <path d="M0,101.553611 L23.3276367,54.6827135 L101.086426,54.6827135 L124.414062,101.553611 L0,101.553611 Z" id="Fill-2134" fill="#FFFFFF" sketch:type="MSShapeGroup"></path>
            <path d="M96.5501724,62.4945297 L27.8638901,62.4945297 L12.3121323,93.7417945 L112.10193,93.7417945 L96.5501724,62.4945297 Z" id="Fill-2135" fill="#90CAF9" sketch:type="MSShapeGroup"></path>
            <path d="M116.638184,0 L7.77587891,0 C3.48164978,0 0,3.49774071 0,7.81181621 L23.3276367,54.6827135 L101.086426,54.6827135 L124.414062,7.81181621 C124.414062,3.49774071 120.932413,0 116.638184,0" id="Fill-2136" fill="#E2E4E5" sketch:type="MSShapeGroup"></path>
            <path d="M124.414062,7.81181621 C124.414062,3.49774071 120.932413,0 116.638184,0 L7.77587891,0 C3.48164978,0 0,3.49774071 0,7.81181621 L124.414062,7.81181621 Z" id="Fill-2137" fill="#FFFFFF" sketch:type="MSShapeGroup"></path>
            <path d="M12.3121323,93.7417945 L37.5234756,93.7417945 L68.6269913,62.4945297 L27.8638901,62.4945297 L12.3121323,93.7417945 Z" id="Fill-2138" fill="#BBDEFB" sketch:type="MSShapeGroup"></path>
        </g>
        <g id="Group" sketch:type="MSLayerGroup" transform="translate(191.699219, 55.346045)">
            <path d="M1.26953125,54.8421383 C1.26953125,56.2501783 2.40703125,57.3929354 3.80859375,57.3929354 L69.8242188,57.3929354 C71.2257812,57.3929354 72.3632812,56.2501783 72.3632812,54.8421383 L72.3632812,34.4357612 L1.26953125,34.4357612 L1.26953125,54.8421383 Z" id="Fill-5279" fill="#E2E4E5" sketch:type="MSShapeGroup"></path>
            <path d="M14.7536035,3.20711723 C15.0354395,2.07201251 16.0510645,1.27488841 17.2164941,1.27488841 L56.4158105,1.27488841 C57.5812402,1.27488841 58.5968652,2.07201251 58.8799707,3.20711723 L72.2874902,33.8166828 C72.4766504,34.5793711 72.3065332,35.385423 71.8253809,36.0052667 C71.3442285,36.6251104 70.6053613,36.9860482 69.8245996,36.9860482 L3.80897461,36.9860482 C3.02567383,36.9860482 2.28807617,36.6251104 1.80692383,36.0052667 C1.32577148,35.385423 1.1556543,34.5793711 1.34481445,33.8166828 L14.7536035,3.20711723 Z" id="Fill-5280" fill="#FFFFFF" sketch:type="MSShapeGroup"></path>
            <path d="M57.1289062,33.5684902 L60.9375,33.5684902 L60.9375,30.2001626 L57.1289062,30.2001626 L57.1289062,33.5684902 Z" id="Fill-5281" fill="#26A69A" sketch:type="MSShapeGroup"></path>
            <path d="M11.4257812,52.2913411 L62.2070312,52.2913411 L62.2070312,42.0881526 L11.4257812,42.0881526 L11.4257812,52.2913411 Z" id="Fill-5282" fill="#5B5C5F" sketch:type="MSShapeGroup"></path>
            <path d="M36.8164062,65.0453268 C34.0120117,65.0453268 31.7382812,63.0467772 31.7382812,60.5814318 C31.7382812,58.1160864 34.0120117,56.1175368 36.8164062,56.1175368 C39.6208008,56.1175368 41.8945312,58.1160864 41.8945312,60.5814318 C41.8945312,63.0467772 39.6208008,65.0453268 36.8164062,65.0453268 M57.0946289,47.1897469 L16.5381836,47.1897469 C13.3427734,50.9228385 11.4257812,55.5499845 11.4257812,60.5814318 C11.4257812,72.9081589 22.7931641,82.9009067 36.8164062,82.9009067 C50.8396484,82.9009067 62.2070312,72.9081589 62.2070312,60.5814318 C62.2070312,55.5499845 60.2900391,50.9228385 57.0946289,47.1897469" id="Fill-5283" fill="#E3F2FD" sketch:type="MSShapeGroup"></path>
            <path d="M36.8164062,65.0453268 C34.0120117,65.0453268 31.7382812,63.0480526 31.7382812,60.5814318 C31.7382812,58.1160864 34.0120117,56.1175368 36.8164062,56.1175368 C39.6208008,56.1175368 41.8945312,58.1160864 41.8945312,60.5814318 C41.8945312,63.0480526 39.6208008,65.0453268 36.8164062,65.0453268 M62.2070312,60.5814318 C62.2070312,59.5713162 62.1092773,58.5828823 61.9607422,57.6084778 C61.9048828,57.6097532 45.8275391,58.1160864 45.8313477,58.1709285 C45.1115234,56.0958551 43.5004883,54.361313 41.3791016,53.3269648 L44.4335938,47.1897469 L29.1992188,47.1897469 L32.2537109,53.3269648 C29.5419922,54.6495531 27.6694336,57.1148985 27.4333008,59.9794437 C27.421875,59.8799626 12.0745117,65.1779682 11.9805664,65.2098532 C13.2729492,70.5984121 16.7882813,75.2510661 21.6302734,78.4382871 L31.7636719,67.5731667 C33.2249023,68.3919726 34.9552734,68.8715225 36.8164062,68.8715225 C39.3402344,68.8715225 41.6266602,67.9953237 43.3189453,66.5758051 L57.4526367,73.5509598 C60.4334961,69.8931167 62.2070312,65.4241202 62.2070312,60.5814318" id="Fill-5284" fill="#FFFFFF" sketch:type="MSShapeGroup"></path>
        </g>
        <g id="Group" sketch:type="MSLayerGroup" transform="translate(1188.281250, 138.246951)">
            <path d="M34.0725806,42.2527202 C34.0725806,40.7754795 35.2640562,39.5784974 36.734501,39.5784974 L43.6171623,39.5784974 C44.3231036,39.5784974 45.0002961,39.8608953 45.4996724,40.3615098 L49.2646925,44.1439305 C49.7640688,44.6445451 50.4412613,44.926943 51.1472026,44.926943 L63.3537046,44.926943 C64.8241494,44.926943 66.015625,46.1239251 66.015625,47.6011658 L66.015625,63.6465026 C66.015625,65.1237432 64.8241494,66.3207254 63.3537046,66.3207254 L36.734501,66.3207254 C35.2640562,66.3207254 34.0725806,65.1237432 34.0725806,63.6465026 L34.0725806,42.2527202 Z" id="Fill-5449" fill="#F4D0A1" sketch:type="MSShapeGroup"></path>
            <path d="M34.0725806,10.1620466 C34.0725806,8.68480595 35.2640562,7.48782383 36.734501,7.48782383 L43.6171623,7.48782383 C44.3231036,7.48782383 45.0002961,7.77022176 45.4996724,8.27083627 L49.2646925,12.053257 C49.7640688,12.5538715 50.4412613,12.8362694 51.1472026,12.8362694 L63.3537046,12.8362694 C64.8241494,12.8362694 66.015625,14.0332515 66.015625,15.5104922 L66.015625,31.555829 C66.015625,33.0330697 64.8241494,34.2300518 63.3537046,34.2300518 L36.734501,34.2300518 C35.2640562,34.2300518 34.0725806,33.0330697 34.0725806,31.555829 L34.0725806,10.1620466 Z" id="Fill-5450" fill="#F4D0A1" sketch:type="MSShapeGroup"></path>
            <path d="M29.8135081,19.2544041 C29.8135081,20.4353409 28.8594758,21.3937824 27.6839718,21.3937824 C26.5084677,21.3937824 25.5544355,20.4353409 25.5544355,19.2544041 C25.5544355,18.0734673 26.5084677,17.1150259 27.6839718,17.1150259 C28.8594758,17.1150259 29.8135081,18.0734673 29.8135081,19.2544041" id="Fill-5451" fill="#FFFFFF" sketch:type="MSShapeGroup"></path>
            <path d="M21.2953629,19.2544041 C21.2953629,20.4353409 20.3413306,21.3937824 19.1658266,21.3937824 C17.9903226,21.3937824 17.0362903,20.4353409 17.0362903,19.2544041 C17.0362903,18.0734673 17.9903226,17.1150259 19.1658266,17.1150259 C20.3413306,17.1150259 21.2953629,18.0734673 21.2953629,19.2544041" id="Fill-5452" fill="#FFFFFF" sketch:type="MSShapeGroup"></path>
            <path d="M12.7772177,19.2544041 C12.7772177,20.4353409 11.8231855,21.3937824 10.6476815,21.3937824 C9.47217742,21.3937824 8.51814516,20.4353409 8.51814516,19.2544041 C8.51814516,18.0734673 9.47217742,17.1150259 10.6476815,17.1150259 C11.8231855,17.1150259 12.7772177,18.0734673 12.7772177,19.2544041" id="Fill-5453" fill="#FFFFFF" sketch:type="MSShapeGroup"></path>
            <path d="M4.25907258,19.2544041 C4.25907258,20.4353409 3.30504032,21.3937824 2.12953629,21.3937824 C0.954032258,21.3937824 0,20.4353409 0,19.2544041 C0,18.0734673 0.954032258,17.1150259 2.12953629,17.1150259 C3.30504032,17.1150259 4.25907258,18.0734673 4.25907258,19.2544041" id="Fill-5454" fill="#FFFFFF" sketch:type="MSShapeGroup"></path>
            <path d="M29.8135081,53.4844559 C29.8135081,54.6653927 28.8594758,55.6238342 27.6839718,55.6238342 C26.5084677,55.6238342 25.5544355,54.6653927 25.5544355,53.4844559 C25.5544355,52.3035191 26.5084677,51.3450777 27.6839718,51.3450777 C28.8594758,51.3450777 29.8135081,52.3035191 29.8135081,53.4844559" id="Fill-5455" fill="#FFFFFF" sketch:type="MSShapeGroup"></path>
            <path d="M21.2953629,53.4844559 C21.2953629,54.6653927 20.3413306,55.6238342 19.1658266,55.6238342 C17.9903226,55.6238342 17.0362903,54.6653927 17.0362903,53.4844559 C17.0362903,52.3035191 17.9903226,51.3450777 19.1658266,51.3450777 C20.3413306,51.3450777 21.2953629,52.3035191 21.2953629,53.4844559" id="Fill-5456" fill="#FFFFFF" sketch:type="MSShapeGroup"></path>
            <path d="M12.7772177,53.4844559 C12.7772177,54.6653927 11.8231855,55.6238342 10.6476815,55.6238342 C9.47217742,55.6238342 8.51814516,54.6653927 8.51814516,53.4844559 C8.51814516,52.3035191 9.47217742,51.3450777 10.6476815,51.3450777 C11.8231855,51.3450777 12.7772177,52.3035191 12.7772177,53.4844559" id="Fill-5457" fill="#FFFFFF" sketch:type="MSShapeGroup"></path>
            <path d="M4.25907258,53.4844559 C4.25907258,54.6653927 3.30504032,55.6238342 2.12953629,55.6238342 C0.954032258,55.6238342 0,54.6653927 0,53.4844559 C0,52.3035191 0.954032258,51.3450777 2.12953629,51.3450777 C3.30504032,51.3450777 4.25907258,52.3035191 4.25907258,53.4844559" id="Fill-5458" fill="#FFFFFF" sketch:type="MSShapeGroup"></path>
            <path d="M4.25907258,44.926943 C4.25907258,46.1078798 3.30504032,47.0663212 2.12953629,47.0663212 C0.954032258,47.0663212 0,46.1078798 0,44.926943 C0,43.7460062 0.954032258,42.7875647 2.12953629,42.7875647 C3.30504032,42.7875647 4.25907258,43.7460062 4.25907258,44.926943" id="Fill-5459" fill="#FFFFFF" sketch:type="MSShapeGroup"></path>
            <path d="M4.25907258,36.36943 C4.25907258,37.5503668 3.30504032,38.5088083 2.12953629,38.5088083 C0.954032258,38.5088083 0,37.5503668 0,36.36943 C0,35.1884932 0.954032258,34.2300518 2.12953629,34.2300518 C3.30504032,34.2300518 4.25907258,35.1884932 4.25907258,36.36943" id="Fill-5460" fill="#FFFFFF" sketch:type="MSShapeGroup"></path>
            <path d="M4.25907258,27.8119171 C4.25907258,28.9928539 3.30504032,29.9512953 2.12953629,29.9512953 C0.954032258,29.9512953 0,28.9928539 0,27.8119171 C0,26.6309803 0.954032258,25.6725388 2.12953629,25.6725388 C3.30504032,25.6725388 4.25907258,26.6309803 4.25907258,27.8119171" id="Fill-5461" fill="#FFFFFF" sketch:type="MSShapeGroup"></path>
            <path d="M4.25907258,10.6968912 C4.25907258,11.877828 3.30504032,12.8362694 2.12953629,12.8362694 C0.954032258,12.8362694 0,11.877828 0,10.6968912 C0,9.5159544 0.954032258,8.55751295 2.12953629,8.55751295 C3.30504032,8.55751295 4.25907258,9.5159544 4.25907258,10.6968912" id="Fill-5462" fill="#FFFFFF" sketch:type="MSShapeGroup"></path>
            <path d="M4.25907258,2.13937824 C4.25907258,3.32031502 3.30504032,4.27875647 2.12953629,4.27875647 C0.954032258,4.27875647 0,3.32031502 0,2.13937824 C0,0.95844145 0.954032258,0 2.12953629,0 C3.30504032,0 4.25907258,0.95844145 4.25907258,2.13937824" id="Fill-5463" fill="#FFFFFF" sketch:type="MSShapeGroup"></path>
            <path d="M51.1467767,12.8362694 C50.4408354,12.8362694 49.7636429,12.5538715 49.2642666,12.053257 L45.5003112,8.27083627 C45.000935,7.77022176 44.3237424,7.48782383 43.6178012,7.48782383 L36.7340751,7.48782383 C35.2636303,7.48782383 34.0721547,8.68480595 34.0721547,10.1620466 L34.0721547,31.555829 C34.0721547,32.3399111 34.4150101,33.0394878 34.9505885,33.5283357 L55.5463987,12.8362694 L51.1467767,12.8362694 Z" id="Fill-5464" fill="#F9E1C2" sketch:type="MSShapeGroup"></path>
            <path d="M51.1467767,44.926943 C50.4408354,44.926943 49.7636429,44.6445451 49.2642666,44.1439305 L45.5003112,40.3615098 C45.000935,39.8608953 44.3237424,39.5784974 43.6178012,39.5784974 L36.7340751,39.5784974 C35.2636303,39.5784974 34.0721547,40.7754795 34.0721547,42.2527202 L34.0721547,63.6465026 C34.0721547,64.4305847 34.4150101,65.1301614 34.9505885,65.6190093 L55.5463987,44.926943 L51.1467767,44.926943 Z" id="Fill-5465" fill="#F9E1C2" sketch:type="MSShapeGroup"></path>
        </g>
        <g id="Group" sketch:type="MSLayerGroup" transform="translate(1242.663847, 300.754590) rotate(17.000000) translate(-1242.663847, -300.754590) translate(1222.094383, 273.153152)">
            <path d="M41.1389267,44.8523354 C41.1389267,50.5684206 36.5339381,55.2028744 30.854195,55.2028744 L1.71412195,55.2028744 C0.767926631,55.2028744 0,54.4300341 0,53.4777845 L0,1.72508982 C0,0.772840241 0.767926631,0 1.71412195,0 L39.4248047,0 C40.3710001,0 41.1389267,0.772840241 41.1389267,1.72508982 L41.1389267,44.8523354 Z" id="Fill-7073" fill="#FFFFFF" sketch:type="MSShapeGroup"></path>
            <path d="M37.7106828,18.9759881 C37.7106828,21.8344619 35.408617,24.1512575 32.568317,24.1512575 L5.14236584,24.1512575 C4.19617052,24.1512575 3.42824389,23.3784173 3.42824389,22.4261677 L3.42824389,5.17526947 C3.42824389,4.22301989 4.19617052,3.45017965 5.14236584,3.45017965 L35.9965609,3.45017965 C36.9427562,3.45017965 37.7106828,4.22301989 37.7106828,5.17526947 L37.7106828,18.9759881 Z" id="Fill-7074" fill="#E2E4E5" sketch:type="MSShapeGroup"></path>
            <path d="M37.7106828,35.7956138 C37.7106828,36.9867884 36.7516316,37.9519761 35.5680304,37.9519761 C34.3844292,37.9519761 33.4253779,36.9867884 33.4253779,35.7956138 C33.4253779,34.6044393 34.3844292,33.6392516 35.5680304,33.6392516 C36.7516316,33.6392516 37.7106828,34.6044393 37.7106828,35.7956138" id="Fill-7075" fill="#EF5350" sketch:type="MSShapeGroup"></path>
            <path d="M32.568317,20.7010779 L9.4276707,20.7010779 L9.4276707,6.9003593 L32.568317,6.9003593 L32.568317,20.7010779 Z" id="Fill-7076" fill="#26A69A" sketch:type="MSShapeGroup"></path>
            <path d="M7.71354875,10.3505389 C7.71354875,10.8275263 7.32958544,11.2130839 6.85648778,11.2130839 C6.38339012,11.2130839 5.99942681,10.8275263 5.99942681,10.3505389 C5.99942681,9.87441415 6.38339012,9.48799403 6.85648778,9.48799403 C7.32958544,9.48799403 7.71354875,9.87441415 7.71354875,10.3505389" id="Fill-7077" fill="#EF5350" sketch:type="MSShapeGroup"></path>
            <path d="M18.8553414,32.4890479 C18.8553414,32.0129231 18.4713781,31.626503 17.9982804,31.626503 L15.7124988,31.626503 C15.2394012,31.626503 14.8554378,31.2400829 14.8554378,30.7639581 L14.8554378,28.4635508 C14.8554378,27.987426 14.4723316,27.6010059 13.9983769,27.6010059 L11.7134523,27.6010059 C11.2394976,27.6010059 10.8563913,27.987426 10.8563913,28.4635508 L10.8563913,30.7639581 C10.8563913,31.2400829 10.472428,31.626503 9.99933037,31.626503 L7.71354875,31.626503 C7.2404511,31.626503 6.85648778,32.0129231 6.85648778,32.4890479 L6.85648778,34.7903178 C6.85648778,35.26558 7.2404511,35.6528627 7.71354875,35.6528627 L9.99933037,35.6528627 C10.472428,35.6528627 10.8563913,36.0384202 10.8563913,36.5154076 L10.8563913,38.8140898 C10.8563913,39.2910771 11.2394976,39.6766347 11.7134523,39.6766347 L13.9983769,39.6766347 C14.4723316,39.6766347 14.8554378,39.2910771 14.8554378,38.8140898 L14.8554378,36.5154076 C14.8554378,36.0384202 15.2394012,35.6528627 15.7124988,35.6528627 L17.9982804,35.6528627 C18.4713781,35.6528627 18.8553414,35.26558 18.8553414,34.7903178 L18.8553414,32.4890479 Z" id="Fill-7078" fill="#CFD3D4" sketch:type="MSShapeGroup"></path>
            <path d="M30.854195,39.2457935 C30.854195,40.436968 29.8951438,41.4021558 28.7115426,41.4021558 C27.5279414,41.4021558 26.5688902,40.436968 26.5688902,39.2457935 C26.5688902,38.054619 27.5279414,37.0894312 28.7115426,37.0894312 C29.8951438,37.0894312 30.854195,38.054619 30.854195,39.2457935" id="Fill-7079" fill="#EF5350" sketch:type="MSShapeGroup"></path>
            <path d="M16.7055754,48.7009246 C16.4313158,48.1497584 16.6541517,47.4786984 17.2018137,47.2035466 L21.6396754,44.9704178 C22.1873373,44.6944034 22.8541308,44.9178026 23.1275332,45.4698313 C23.4017927,46.0218601 23.1798139,46.6920575 22.632152,46.9672093 L18.1942903,49.2003381 C17.6474854,49.4754899 16.9806919,49.2538159 16.7055754,48.7009246" id="Fill-7080" fill="#CFD3D4" sketch:type="MSShapeGroup"></path>
            <path d="M7.83070899,48.7009246 C7.55644948,48.1497584 7.77928533,47.4786984 8.32694729,47.2035466 L12.764809,44.9704178 C13.312471,44.6944034 13.9792644,44.9178026 14.2526669,45.4698313 C14.5269264,46.0218601 14.3049476,46.6920575 13.7572856,46.9672093 L9.3194239,49.2003381 C8.772619,49.4754899 8.10582556,49.2538159 7.83070899,48.7009246" id="Fill-7081" fill="#CFD3D4" sketch:type="MSShapeGroup"></path>
            <path d="M9.4276707,6.9003593 L9.4276707,20.7010779 L12.9956155,20.7010779 L26.7085911,6.9003593 L9.4276707,6.9003593 Z" id="Fill-7082" fill="#4DB6AC" sketch:type="MSShapeGroup"></path>
        </g>
        <g id="Group" sketch:type="MSLayerGroup" transform="translate(869.038207, 209.943549) rotate(-15.000000) translate(-869.038207, -209.943549) translate(828.038207, 168.943549)">
            <path d="M81.1921467,15.3251316 L65.9686192,0.00753115353 L50.7450917,15.3251316 L65.9686192,30.642732 L81.1921467,15.3251316 Z" id="Fill-2190" fill="#F0F0F0" sketch:type="MSShapeGroup"></path>
            <path d="M65.9686192,0.00753115353 L50.7450917,15.3251316 L58.3327515,22.9584024 L73.556279,7.64080202 L65.9686192,0.00753115353 Z" id="Fill-2191" fill="#FFFFFF" sketch:type="MSShapeGroup"></path>
            <path d="M10.1490183,68.936733 C10.1490183,67.5262373 11.2857084,66.3837996 12.6862729,66.3837996 C14.0868375,66.3837996 15.2235275,67.5262373 15.2235275,68.936733 C15.2235275,70.3459522 14.0868375,71.4896664 12.6862729,71.4896664 C11.2857084,71.4896664 10.1490183,70.3459522 10.1490183,68.936733 L10.1490183,68.936733 Z M71.0431284,35.7485988 L45.6705825,10.2192648 L0.74975873,55.4176742 C0.265143104,55.904008 -0.00253725458,56.5677707 0.00761176376,57.2557862 C0.242307813,75.202908 6.45731292,81.4575948 24.2942126,81.6937412 C24.9780028,81.7026764 25.6389576,81.433342 26.1223046,80.9470082 L71.0431284,35.7485988 Z" id="Fill-2192" fill="#FBC02D" sketch:type="MSShapeGroup"></path>
            <path d="M45.6705825,10.2192648 L0.74975873,55.4163977 C0.265143104,55.904008 -0.00253725458,56.5677707 0.00761176375,57.2557862 C0.124325475,66.193606 1.72787037,72.2287406 5.5083797,76.067076 L10.8505692,70.6905982 C10.4179673,70.2323467 10.1490183,69.6170897 10.1490183,68.936733 C10.1490183,67.5262373 11.2857084,66.3837996 12.6862729,66.3837996 C13.3637199,66.3837996 13.9751983,66.6544105 14.4306355,67.0896857 L58.3111849,22.9367025 L45.6705825,10.2192648 Z" id="Fill-2193" fill="#FDD835" sketch:type="MSShapeGroup"></path>
            <path d="M68.5058738,10.2192648 L64.6999919,6.38986466 L60.89411,10.2192648 L64.6999919,14.0486649 L68.5058738,10.2192648 Z" id="Fill-2194" fill="#787878" sketch:type="MSShapeGroup"></path>
            <path d="M74.8490102,16.6015983 L71.0431284,12.7721982 L67.2372465,16.6015983 L71.0431284,20.4309984 L74.8490102,16.6015983 Z" id="Fill-2195" fill="#5B5C5F" sketch:type="MSShapeGroup"></path>
            <path d="M50.7450917,45.9603324 L35.5215642,30.642732 L22.0918757,44.154132 C21.1010778,45.1510525 21.1010778,46.7683358 22.0918757,47.7652563 L33.7277252,59.4717324 C34.7185231,60.4686529 36.3246053,60.4686529 37.3154032,59.4717324 L50.7450917,45.9603324 Z" id="Fill-2196" fill="#F0F0F0" sketch:type="MSShapeGroup"></path>
            <path d="M35.5215642,30.642732 L22.0918757,44.154132 C21.1010778,45.1510525 21.1010778,46.7683358 22.0918757,47.7639798 L27.8856965,53.5936032 L43.109224,38.2760028 L35.5215642,30.642732 Z" id="Fill-2197" fill="#FFFFFF" sketch:type="MSShapeGroup"></path>
        </g>
        <g id="Group" sketch:type="MSLayerGroup" transform="translate(1099.414062, 17.084088)">
            <path d="M0.611787109,58.3320114 C0.115400391,58.8306922 0.115400391,59.6367441 0.611787109,60.1367003 L20.3606152,79.9768004 C20.857002,80.4742058 21.6606152,80.4742058 22.1557324,79.9768004 L49.0875684,52.9217707 L46.3948926,50.2166503 C45.4021191,49.2192886 45.4021191,47.604634 46.3948926,46.6085478 C47.385127,45.6124615 48.993623,45.6124615 49.985127,46.6085478 L52.6778027,49.3149435 L79.6083691,22.2586384 C80.1047559,21.7599575 80.1047559,20.9526302 79.6083691,20.4552248 L59.859541,0.613849329 C59.3631543,0.116443889 58.559541,0.116443889 58.0631543,0.613849329 L0.611787109,58.3320114 Z" id="Fill-5148" fill="#00897B" sketch:type="MSShapeGroup"></path>
            <path d="M59.859541,0.613976869 C59.3631543,0.116571429 58.559541,0.116571429 58.0631543,0.613976869 L0.611787109,58.3321389 C0.115400391,58.8308197 0.115400391,59.638147 0.611787109,60.1355525 L8.56920898,68.1297507 L67.8169629,8.60945047 L59.859541,0.613976869 Z" id="Fill-5149" fill="#26A69A" sketch:type="MSShapeGroup"></path>
            <path d="M46.3942578,50.2162677 C46.0654492,49.8859395 45.8559766,49.4854643 45.7455273,49.0633074 L20.36125,74.5661771 L23.9514844,78.1730042 L49.0869336,52.921388 L46.3942578,50.2162677 Z" id="Fill-5150" fill="#F0F0F0" sketch:type="MSShapeGroup"></path>
            <path d="M48.8378516,45.9566916 C49.2567969,46.0689266 49.6566992,46.278092 49.9842383,46.6084202 L52.6781836,49.314816 L77.8136328,24.0619244 L74.2233984,20.4550973 L48.8378516,45.9566916 Z" id="Fill-5151" fill="#F0F0F0" sketch:type="MSShapeGroup"></path>
            <path d="M27.5422266,58.3320114 L17.6678125,68.2520614 L7.79339844,58.3320114 L17.6678125,48.4119613 L27.5422266,58.3320114 Z" id="Fill-5152" fill="#4DB6AC" sketch:type="MSShapeGroup"></path>
            <path d="M41.0075098,44.804624 L31.1330957,54.7246741 L21.2586816,44.804624 L31.1330957,34.884574 L41.0075098,44.804624 Z" id="Fill-5153" fill="#4DB6AC" sketch:type="MSShapeGroup"></path>
            <path d="M54.4733008,31.2771092 L44.5988867,41.1971592 L34.7232031,31.2771092 L44.5988867,21.3570591 L54.4733008,31.2771092 Z" id="Fill-5154" fill="#4DB6AC" sketch:type="MSShapeGroup"></path>
            <path d="M67.938457,17.7497218 L58.064043,27.6697719 L48.1896289,17.7497218 L58.064043,7.82967179 L67.938457,17.7497218 Z" id="Fill-5155" fill="#4DB6AC" sketch:type="MSShapeGroup"></path>
            <path d="M17.6680664,48.4122164 L7.79365234,58.3322664 L13.0571289,63.6213443 L22.931543,53.7000189 L17.6680664,48.4122164 Z" id="Fill-5156" fill="#80CBC4" sketch:type="MSShapeGroup"></path>
            <path d="M31.1332227,34.8848291 L21.2588086,44.8048791 L26.5222852,50.0926816 L36.3966992,40.1726315 L31.1332227,34.8848291 Z" id="Fill-5157" fill="#80CBC4" sketch:type="MSShapeGroup"></path>
            <path d="M44.5985059,21.3566765 L34.7240918,31.2767265 L39.9875684,36.5658044 L49.8619824,26.644479 L44.5985059,21.3566765 Z" id="Fill-5158" fill="#80CBC4" sketch:type="MSShapeGroup"></path>
            <path d="M58.0636621,7.82928917 L48.189248,17.7493392 L53.4539941,23.0384171 L63.3271387,13.1170916 L58.0636621,7.82928917 Z" id="Fill-5159" fill="#80CBC4" sketch:type="MSShapeGroup"></path>
        </g>
        <g id="Group" sketch:type="MSLayerGroup" transform="translate(862.012608, 550.198332) rotate(6.000000) translate(-862.012608, -550.198332) translate(844.247811, 520.857829)">
            <path d="M2.53782819,6.05945163 C2.53782819,4.12210143 4.01503453,2.55134805 5.83700483,2.55134805 L32.230418,2.55134805 C34.0523883,2.55134805 35.5295946,4.12210143 35.5295946,6.05945163 L35.5295946,55.1729017 C35.5295946,57.1111289 34.0523883,58.6810052 32.230418,58.6810052 L5.83700483,58.6810052 C4.01503453,58.6810052 2.53782819,57.1111289 2.53782819,55.1729017 L2.53782819,6.05945163 Z" id="ombre" fill-opacity="0.2" fill="#000000" sketch:type="MSShapeGroup"></path>
            <path d="M0,3.50810357 C0,1.57075338 1.47720634,0 3.29917664,0 L29.6925898,0 C31.5145601,0 32.9917664,1.57075338 32.9917664,3.50810357 L32.9917664,52.6215536 C32.9917664,54.5597808 31.5145601,56.1296572 29.6925898,56.1296572 L3.29917664,56.1296572 C1.47720634,56.1296572 0,54.5597808 0,52.6215536 L0,3.50810357 Z" id="Fill-5779" fill="#4990E2" sketch:type="MSShapeGroup"></path>
            <path d="M2.28404537,50.7479074 C2.28404537,51.7381493 3.07990829,52.541824 4.0605251,52.541824 L28.9312413,52.541824 C29.9118581,52.541824 30.707721,51.7381493 30.707721,50.7479074 L30.707721,4.10607577 C30.707721,3.11583381 29.9118581,2.31215917 28.9312413,2.31215917 L4.0605251,2.31215917 C3.07990829,2.31215917 2.28404537,3.11583381 2.28404537,4.10607577 L2.28404537,50.7479074 Z" id="Fill-5780" fill="#212121" sketch:type="MSShapeGroup"></path>
            <path d="M9.38996429,2.31215917 L12.9429237,5.89999237 L20.0488427,5.89999237 L23.6018021,2.31215917 L9.38996429,2.31215917 Z" id="Fill-5781" fill="#5B5C5F" sketch:type="MSShapeGroup"></path>
            <path d="M12.9429237,16.663492 L5.83700483,16.663492 L5.83700483,9.48782557 L12.9429237,9.48782557 L12.9429237,16.663492 Z" id="Fill-5782" fill="#FFEE58" sketch:type="MSShapeGroup"></path>
            <path d="M20.0488427,16.663492 L12.9429237,16.663492 L12.9429237,9.48782557 L20.0488427,9.48782557 L20.0488427,16.663492 Z" id="Fill-5783" fill="#4DB6AC" sketch:type="MSShapeGroup"></path>
            <path d="M27.1547616,16.663492 L20.0488427,16.663492 L20.0488427,9.48782557 L27.1547616,9.48782557 L27.1547616,16.663492 Z" id="Fill-5784" fill="#FB8C00" sketch:type="MSShapeGroup"></path>
            <path d="M5.83700483,23.8391584 L16.4958832,23.8391584 L16.4958832,16.663492 L5.83700483,16.663492 L5.83700483,23.8391584 Z" id="Fill-5785" fill="#64B5F7" sketch:type="MSShapeGroup"></path>
            <path d="M16.4958832,23.8391584 L27.1547616,23.8391584 L27.1547616,16.663492 L16.4958832,16.663492 L16.4958832,23.8391584 Z" id="Fill-5786" fill="#EF5350" sketch:type="MSShapeGroup"></path>
            <path d="M5.83700483,34.602658 L16.4958832,34.602658 L16.4958832,23.8391584 L5.83700483,23.8391584 L5.83700483,34.602658 Z" id="Fill-5787" fill="#4DB6AC" sketch:type="MSShapeGroup"></path>
            <path d="M16.4958832,29.2209082 L21.8253224,29.2209082 L21.8253224,23.8391584 L16.4958832,23.8391584 L16.4958832,29.2209082 Z" id="Fill-5788" fill="#FB8C00" sketch:type="MSShapeGroup"></path>
            <path d="M16.4958832,34.602658 L21.8253224,34.602658 L21.8253224,29.2209082 L16.4958832,29.2209082 L16.4958832,34.602658 Z" id="Fill-5789" fill="#FFEE58" sketch:type="MSShapeGroup"></path>
            <path d="M21.8253224,29.2209082 L27.1547616,29.2209082 L27.1547616,23.8391584 L21.8253224,23.8391584 L21.8253224,29.2209082 Z" id="Fill-5790" fill="#64B5F7" sketch:type="MSShapeGroup"></path>
            <path d="M21.8253224,34.602658 L27.1547616,34.602658 L27.1547616,29.2209082 L21.8253224,29.2209082 L21.8253224,34.602658 Z" id="Fill-5791" fill="#FB8C00" sketch:type="MSShapeGroup"></path>
            <path d="M27.1547616,41.7783244 L5.83700483,41.7783244 L5.83700483,34.602658 L27.1547616,34.602658 L27.1547616,41.7783244 Z" id="Fill-5792" fill="#EF5350" sketch:type="MSShapeGroup"></path>
            <path d="M18.2723629,48.9539908 L14.7194035,48.9539908 L14.7194035,45.3661576 L18.2723629,45.3661576 L18.2723629,48.9539908 Z" id="Fill-5793" fill="#979797" sketch:type="MSShapeGroup"></path>
        </g>
    </g>
</svg>